<svg class="animated" id="freepik_stories-beach-volleyball" xmlns="http://www.w3.org/2000/svg" viewBox="0 0 750 500" version="1.1" xmlns:xlink="http://www.w3.org/1999/xlink" xmlns:svgjs="http://svgjs.com/svgjs"><style>svg#freepik_stories-beach-volleyball:not(.animated) .animable {opacity: 0;}svg#freepik_stories-beach-volleyball.animated #freepik--character-2--inject-18 {animation: 3s Infinite  linear floating;animation-delay: 0s;}svg#freepik_stories-beach-volleyball.animated #freepik--character-1--inject-18 {animation: 6s Infinite  linear floating;animation-delay: 0s;}svg#freepik_stories-beach-volleyball.animated #freepik--Ball--inject-18 {animation: 3s Infinite  linear spin;animation-delay: 0s;}            @keyframes floating {                0% {                    opacity: 1;                    transform: translateY(0px);                }                50% {                    transform: translateY(-10px);                }                100% {                    opacity: 1;                    transform: translateY(0px);                }            }                 @keyframes spin {             from {                 transform: rotate(0);               }               to {                 transform: rotate(360deg);               }         }     .animator-hidden { display: none; }</style><g id="freepik--background-complete--inject-18" style="transform-origin: 374.996px 245.195px 0px;" class="animable animator-hidden"><path d="M672.32,386.07a32.07,32.07,0,0,1-4.34.77c-1.46.19-2.92.34-4.38.5l-8.78.86-17.57,1.43-35.17,2.57c-11.72.81-23.45,1.65-35.14,2.72-2.92.28-5.85.56-8.74,1a27,27,0,0,0-4.26.94,16.1,16.1,0,0,0-4,1.69,3.22,3.22,0,0,0-1.35,1.49,2,2,0,0,0,.47,1.86,12,12,0,0,0,3.41,2.64,64.27,64.27,0,0,0,8,3.6,57.91,57.91,0,0,1-8.16-3.37,12.09,12.09,0,0,1-3.58-2.64,2.43,2.43,0,0,1-.59-2.22,3.64,3.64,0,0,1,1.49-1.76,16.37,16.37,0,0,1,4.08-1.83,28.07,28.07,0,0,1,4.33-1c2.92-.47,5.84-.8,8.76-1.13,11.7-1.22,23.43-2.06,35.15-2.95l35.18-2.33,17.59-1.16,8.79-.63,4.39-.39A30.51,30.51,0,0,0,672.32,386.07Z" style="fill: rgb(235, 235, 235); transform-origin: 610.197px 397.105px 0px;" id="elgdagfrj9tsc" class="animable"></path><path d="M107.74,384.87a49.36,49.36,0,0,0,6.86,1c2.3.24,4.61.44,6.91.64q6.93.57,13.86,1l27.71,1.9,55.45,3.75c18.47,1.38,36.95,2.69,55.39,4.58,4.6.5,9.21,1,13.8,1.74a41.58,41.58,0,0,1,6.79,1.59,25.24,25.24,0,0,1,6.4,2.83,5.56,5.56,0,0,1,2.31,2.7,3.09,3.09,0,0,1,0,1.83,4.85,4.85,0,0,1-.88,1.57,12.56,12.56,0,0,1-2.61,2.33,29.29,29.29,0,0,1-3,1.82,94.54,94.54,0,0,1-12.81,5.38,95.11,95.11,0,0,0,12.69-5.6,28.72,28.72,0,0,0,2.92-1.85,11.7,11.7,0,0,0,2.5-2.31,4.52,4.52,0,0,0,.79-1.46,2.66,2.66,0,0,0,0-1.58,5.22,5.22,0,0,0-2.18-2.43,25.48,25.48,0,0,0-6.29-2.7,43,43,0,0,0-6.73-1.5c-4.57-.68-9.18-1.14-13.78-1.59-18.43-1.73-36.91-3-55.39-4.35l-55.42-4c-9.24-.7-18.47-1.4-27.7-2.18q-6.93-.6-13.84-1.28c-2.3-.25-4.6-.49-6.9-.77A49.21,49.21,0,0,1,107.74,384.87Z" style="fill: rgb(235, 235, 235); transform-origin: 205.549px 402.2px 0px;" id="elc6pohfnwhhp" class="animable"></path><path d="M688.52,334.8a62.48,62.48,0,0,1-8.69,1.43c-2.92.33-5.85.58-8.78.8-5.85.45-11.72.78-17.58,1.08-11.74.56-23.48,1-35.21,1.38s-23.48.84-35.2,1.49c-5.85.35-11.73.68-17.52,1.44a27.79,27.79,0,0,0-4.23.85,6,6,0,0,0-1.82.85.69.69,0,0,0-.19.24.17.17,0,0,0,0,.15,2,2,0,0,0,.63.56,19.54,19.54,0,0,0,3.94,1.64c1.38.46,2.79.88,4.19,1.29,2.82.84,5.64,1.66,8.44,2.62,1.39.49,2.78,1,4.14,1.62a14.34,14.34,0,0,1,3.87,2.38,3.31,3.31,0,0,1,1.14,2.21,2.55,2.55,0,0,1-.07.67,1.82,1.82,0,0,1-.33.65,3.6,3.6,0,0,1-1,.8,18.07,18.07,0,0,1-4.26,1.51c-2.88.69-5.8,1.14-8.71,1.55-11.68,1.53-23.4,2.29-35.12,3.12s-23.44,1.49-35.14,2.5c-2.92.25-5.85.51-8.76.85a66.31,66.31,0,0,0-8.66,1.45,6.83,6.83,0,0,0-2,.81,8.52,8.52,0,0,0-1.55,1.51,6.2,6.2,0,0,0-1.26,4.06A10.49,10.49,0,0,0,480,380.5a17.44,17.44,0,0,0,2.43,3.65,17.52,17.52,0,0,1-2.49-3.62,10.59,10.59,0,0,1-1.25-4.21,6.4,6.4,0,0,1,1.23-4.2,8.7,8.7,0,0,1,1.57-1.58,7,7,0,0,1,2.06-.87,65.85,65.85,0,0,1,8.68-1.58c2.92-.37,5.84-.68,8.76-1,11.71-1.07,23.43-1.81,35.14-2.67s23.44-1.7,35.05-3.28a85.46,85.46,0,0,0,8.62-1.57,17.12,17.12,0,0,0,4-1.43,2.86,2.86,0,0,0,.72-.58.8.8,0,0,0,.16-.32,1.51,1.51,0,0,0,0-.42,2.41,2.41,0,0,0-.88-1.58,13.4,13.4,0,0,0-3.62-2.19c-1.32-.59-2.68-1.09-4.06-1.56-2.77-.94-5.59-1.74-8.41-2.57-1.41-.42-2.82-.84-4.22-1.31a21.05,21.05,0,0,1-4.15-1.77,2.75,2.75,0,0,1-1-.94,1.14,1.14,0,0,1-.06-.91,1.58,1.58,0,0,1,.47-.63,6.34,6.34,0,0,1,2.14-1,28.76,28.76,0,0,1,4.4-.87c5.86-.74,11.73-1,17.6-1.36,11.73-.59,23.47-.95,35.21-1.32s23.48-.72,35.21-1.21c5.87-.22,11.74-.47,17.6-.83,2.93-.19,5.85-.4,8.78-.68A62.57,62.57,0,0,0,688.52,334.8Z" style="fill: rgb(235, 235, 235); transform-origin: 583.598px 359.475px 0px;" id="el6smn7ok7l7o" class="animable"></path><path d="M61.35,318a23.75,23.75,0,0,0,5.36,2.73c1.88.73,3.8,1.36,5.72,1.93,3.87,1.14,7.78,2.11,11.71,3,7.86,1.75,15.78,3.21,23.72,4.57,15.88,2.75,31.83,5.06,47.79,7.24s31.95,4.2,47.93,6.27c8,1.06,16,2,24,3.4a26.36,26.36,0,0,1,3,.69,6.16,6.16,0,0,1,1.52.65,2,2,0,0,1,.38.35,1,1,0,0,1,.22.69,1.4,1.4,0,0,1-.65.93,11.52,11.52,0,0,1-2.92,1.21c-1,.29-2,.54-3,.78-3.94.93-7.9,1.68-11.84,2.48s-7.89,1.61-11.76,2.65a41.79,41.79,0,0,0-5.66,1.9,8.68,8.68,0,0,0-2.43,1.48c-.66.62-.77,1.4,0,1.81a11.18,11.18,0,0,0,2.69,1c1,.25,1.94.46,2.92.64,2,.37,4,.66,5.95.92,4,.51,8,.9,12,1.25,16.05,1.35,32.15,2.14,48.24,2.95S298.47,371,314.56,372c8,.52,16.09,1,24.1,2.07a39.27,39.27,0,0,1,5.95,1.14,5.16,5.16,0,0,1,1.39.64,9.69,9.69,0,0,1,1.27.85A6.27,6.27,0,0,1,349.2,379a4.73,4.73,0,0,1,.3,3,8.19,8.19,0,0,1-1.19,2.78,18.53,18.53,0,0,1-4.16,4.36,18.21,18.21,0,0,0,4.08-4.41,8,8,0,0,0,1.15-2.75,4.52,4.52,0,0,0-.34-2.9,6.06,6.06,0,0,0-1.9-2.25,11.23,11.23,0,0,0-1.26-.81,4.81,4.81,0,0,0-1.35-.6,39.16,39.16,0,0,0-5.91-1.08c-8-.95-16.05-1.38-24.09-1.86-16.08-.92-32.19-1.57-48.28-2.32s-32.2-1.5-48.28-2.8c-4-.34-8-.72-12-1.22-2-.25-4-.54-6-.9-1-.19-2-.39-3-.65a11.94,11.94,0,0,1-2.95-1.11,2.6,2.6,0,0,1-.7-.61,1.71,1.71,0,0,1-.29-1,2.34,2.34,0,0,1,.79-1.64,9.38,9.38,0,0,1,2.7-1.67,41.85,41.85,0,0,1,5.78-2c3.91-1.07,7.86-1.9,11.81-2.71s7.91-1.56,11.81-2.47c1-.23,1.95-.48,2.9-.76a11.11,11.11,0,0,0,2.65-1.06,1,1,0,0,0,.25-.24c0,.08,0-.05-.19-.16a5.43,5.43,0,0,0-1.26-.54,29.48,29.48,0,0,0-2.88-.68c-7.91-1.39-15.92-2.38-23.9-3.47-16-2.12-31.95-4.2-47.91-6.44s-31.91-4.61-47.79-7.41c-7.93-1.44-15.84-3-23.69-4.83-3.92-.92-7.83-1.93-11.68-3.1-1.93-.6-3.84-1.25-5.71-2A23.82,23.82,0,0,1,61.35,318Z" style="fill: rgb(235, 235, 235); transform-origin: 205.484px 353.57px 0px;" id="elypfad8vsw7" class="animable"></path><path d="M605.58,328.79c-5.86.29-11.73.59-17.59,1s-11.72.73-17.57,1.19-11.7.95-17.52,1.61a147.8,147.8,0,0,0-17.33,2.76,26,26,0,0,0-4.12,1.29,6,6,0,0,0-1.73,1,1.58,1.58,0,0,0-.29.34,3.5,3.5,0,0,0-.24.42,2.73,2.73,0,0,0-.29.89c-.18,1.24.81,2.38,1.91,3.21a22,22,0,0,0,3.71,2.18c1.31.64,2.65,1.22,4,1.84.67.31,1.34.63,2,1a8,8,0,0,1,1,.62,2.42,2.42,0,0,1,.85,1.05,1.12,1.12,0,0,1-.08.86,1.68,1.68,0,0,1-.47.54,3.7,3.7,0,0,1-1.1.56,16.19,16.19,0,0,1-2.2.57c-1.46.28-2.92.46-4.39.62-11.72,1.15-23.48,1.3-35.22,1.31,5.87-.19,11.74-.39,17.6-.71s11.72-.65,17.53-1.35c1.45-.19,2.9-.39,4.32-.69a15.34,15.34,0,0,0,2.07-.55,2.71,2.71,0,0,0,.85-.43c.25-.2.32-.35.27-.47a1.63,1.63,0,0,0-.56-.62,6.79,6.79,0,0,0-.87-.55c-.63-.35-1.28-.66-2-1-1.32-.6-2.68-1.18-4-1.82a23.33,23.33,0,0,1-3.88-2.26,7.22,7.22,0,0,1-1.65-1.66,3.48,3.48,0,0,1-.63-2.41,3.67,3.67,0,0,1,.37-1.19,4.54,4.54,0,0,1,.3-.53,2.59,2.59,0,0,1,.42-.51,6.9,6.9,0,0,1,2-1.23,27.73,27.73,0,0,1,4.26-1.36,146,146,0,0,1,17.47-2.69c5.85-.61,11.7-1.12,17.57-1.47Q588,329.06,605.58,328.79Z" style="fill: rgb(235, 235, 235); transform-origin: 552.245px 341.22px 0px;" id="elhjf0sz4xo5" class="animable"></path><path d="M57.92,246.52c-.61,0-.67-1.21,0-1.3,2.86-.36,5.73-2.92,8.59-3.3s5.67-.69,8.21-2c4.26-2.14,6.91-6.42,11.31-8.47,7.73-3.6,15.7-2.05,23.22,1.12a26.51,26.51,0,0,0,14.22,2.09c4.39-.56,8.67-1.77,13-2.4a25.94,25.94,0,0,1,11.72.57c3.92,1.27,7.3,3.73,11,5.51,4.88,2.35,9.69,2,14.93,2.1,3.78.11,11.67,2.5,11.67,5.05C185.87,247.24,65.41,246.52,57.92,246.52Z" style="fill: rgb(235, 235, 235); transform-origin: 121.615px 238.021px 0px;" id="el9koyspr121h" class="animable"></path><path d="M692.38,232.9c-5.28,0-137-.92-174.15-.92-2.6,0,.69-4.5,2.12-4.81,4.57-1,9.34-1.06,14-1.54a45.41,45.41,0,0,0,13.32-3.34c3.66-1.54,7.31-3.33,11.28-3.95,7.66-1.2,14.38,2.95,21.57,4.79a16.24,16.24,0,0,0,13.06-1.79c3.33-2,6.35-4.38,9.82-6.14a53.86,53.86,0,0,1,43-2,49.73,49.73,0,0,1,9.41,4.82c3.51,2.3,6.54,5.24,10.06,7.52,7.8,5.05,17.44,3.4,26,6.3C692.31,232,692.83,232.9,692.38,232.9Z" style="fill: rgb(235, 235, 235); transform-origin: 604.906px 221.28px 0px;" id="el2lfnnyrwwcg" class="animable"></path><path d="M215.61,108.24c-7,0-124.37.77-131.75.53-.53,0-.81-.79-.29-1,4.65-2.3,9.93-1.84,14.76-3.47,2.85-1,4.59-2.82,6.57-5a13.53,13.53,0,0,1,6.11-4,12.93,12.93,0,0,1,6.65-.21c2.38.57,4.45,1.93,6.72,2.79C130,100,135.5,98,139.53,93.83c3.32-3.44,6.58-6.69,11.1-8.54a14.71,14.71,0,0,1,11.76-.16c4.3,2,7.26,5.87,11.3,8.23,4.8,2.8,10.53,2.14,15.83,3s9.36,5.31,14,7.88a10,10,0,0,0,5.07,1.57c1,0,2-.31,3.08-.44,1.6-.2,3.12-.15,4.19,1.18C216.12,106.86,216.07,108.24,215.61,108.24Z" style="fill: rgb(235, 235, 235); transform-origin: 149.655px 96.3993px 0px;" id="el1umf43mmwwm" class="animable"></path><path d="M498.24,156.34c-5.1,0-90.81.57-96.2.39-.38,0-.59-.58-.21-.77,3.4-1.68,7.25-1.34,10.78-2.53,2.08-.7,3.35-2.06,4.79-3.61a10,10,0,0,1,4.46-2.92,9.43,9.43,0,0,1,4.86-.15,42,42,0,0,1,4.91,2c4.12,1.55,8.12.08,11.06-3,2.42-2.51,4.8-4.88,8.1-6.23a10.74,10.74,0,0,1,8.59-.12c3.14,1.42,5.3,4.29,8.25,6,3.5,2.05,7.69,1.56,11.55,2.18s6.84,3.87,10.23,5.75a7.21,7.21,0,0,0,3.7,1.14,21.37,21.37,0,0,0,2.25-.32,3.08,3.08,0,0,1,3.06.87C498.61,155.34,498.57,156.34,498.24,156.34Z" style="fill: rgb(235, 235, 235); transform-origin: 450.081px 147.664px 0px;" id="elfgzi3mil3f4" class="animable"></path><path d="M526.88,96.4H381.35c-.59,0-.81-.63-.22-.9,5.21-2.45,11.05-1.82,16.45-3.51,3.17-1,5.15-3,7.39-5.34a15,15,0,0,1,6.87-4.28,14.21,14.21,0,0,1,7.38-.08c2.63.68,4.89,2.24,7.39,3.25,6.2,2.49,12.33.37,16.89-4.16,3.76-3.74,7.46-7.27,12.51-9.22a16.38,16.38,0,0,1,13,.09c4.73,2.27,7.92,6.69,12.35,9.4,5.25,3.22,11.63,2.61,17.48,3.67s10.73,3.59,15.83,6.54a10.9,10.9,0,0,0,5.58,1.86c1.15,0,2.28-.29,3.42-.41,1.78-.18,3.46-.1,4.63,1.4C528.62,95.08,530.3,96.4,526.88,96.4Z" style="fill: rgb(235, 235, 235); transform-origin: 454.888px 83.6298px 0px;" id="ellvv2rhq6nz" class="animable"></path><path d="M326.61,215.79c-.1.29-135.09,0-133.39,0,.78,0-1.17-1.16-.41-1.53,4.39-2.18,9.2-2.24,14-2.68a21.52,21.52,0,0,0,8.17-2c2.55-1.33,4.14-3.64,5.94-5.78a25.37,25.37,0,0,1,23-8.73c9.6,1.5,17.17,8.81,26.78,10.16,5.78.81,11.24-1.43,16.89-2.22a20.67,20.67,0,0,1,12.67,2.32c3,1.51,5.86,2.78,9.3,3,2.65.19,5.3-.12,8-.14a17.8,17.8,0,0,1,11.69,4.67C329.66,213.27,331,215.79,326.61,215.79Z" style="fill: rgb(235, 235, 235); transform-origin: 261.198px 205.364px 0px;" id="elv34dxdueiqi" class="animable"></path></g><g id="freepik--Ocean--inject-18" style="transform-origin: 375.003px 320.98px 0px;" class="animable animator-hidden"><path d="M65.73,300H677.08c25.38,0,.18,3.22-20.83,3.56s-84.59,2.07-84.38,4.3,33.62,4.83,33.62,8.18-97.28,6-101.6,7.95,10.47,2.55,4,4.58c-4.86,1.53-73.6,3-102.26,5.12-9.55.71,5.82,4.26-9.48,7.21-6.88,1.32-111.87,2.16-151.79-2.21-33-3.61-19.61-7-29.75-8.65-14.43-2.33-43.24-2.4-43.24-5.24,0-2.47,27.58-4.75,20.7-6.12-19.41-3.86-73.22-1.62-77.59-4.88-3.7-2.75,32.36-4.25,20.71-6.23-6.44-1.09-34.58-2.25-47.33-3.13C82,304,52.25,301.46,65.73,300Z" style="fill: rgb(235, 235, 235); transform-origin: 375.003px 320.98px 0px;" id="elc2oc06c578i" class="animable"></path><path d="M104.52,300H639.18c22.2,0,.17,3-18.21,3.32s-74,1.93-73.79,4,29.4,4.5,29.4,7.63-85.08,5.6-88.86,7.41,9.15,2.38,3.49,4.28c-4.25,1.42-64.37,2.8-89.43,4.77-8.36.66,5.08,4-8.29,6.73-6,1.23-97.65,1.5-132.75-2.06-36.5-3.71-24.19-6.79-28.68-7.55-12.71-2.14-41.9-2.76-41.9-5.42,0-2.3,30.87-4.43,24.84-5.7-17-3.61-64-1.51-67.85-4.55-3.23-2.57,28.3-4,18.11-5.82-5.63-1-30.24-2.09-41.39-2.92C118.72,303.72,92.74,301.36,104.52,300Z" style="fill: rgb(219, 219, 219); transform-origin: 374.999px 319.486px 0px;" id="eluqrxfsx5sck" class="animable"></path><path d="M632,300.72c-8.36.91-16.78,1.18-25.17,1.63l-25.21,1.08q-12.6.44-25.2,1c-2.1.09-4.2.18-6.29.31a41.58,41.58,0,0,0-6.22.73,12.08,12.08,0,0,0-1.49.4c-.44.15-1,.46-.89.74a2.59,2.59,0,0,0,1.16.81c.47.21,1,.39,1.45.56,2,.64,4.05,1.12,6.1,1.58a59.46,59.46,0,0,1-6.17-1.33,15.76,15.76,0,0,1-1.51-.51,6.18,6.18,0,0,1-.73-.36,1.54,1.54,0,0,1-.65-.6.59.59,0,0,1,0-.55,1,1,0,0,1,.32-.35,3.51,3.51,0,0,1,.74-.39,13,13,0,0,1,1.54-.48,41.81,41.81,0,0,1,6.28-.88c2.1-.18,4.2-.31,6.3-.45,8.4-.52,16.8-.84,25.2-1.21l25.22-.84,12.6-.38C623.62,301.09,627.83,301,632,300.72Z" style="fill: rgb(255, 255, 255); transform-origin: 586.556px 305.14px 0px;" id="el5yrpvlnl8kp" class="animable"></path><path d="M337.68,336.19c-7.83.11-15.67,0-23.51-.16s-15.66-.38-23.5-.59-15.66-.58-23.49-1l-5.87-.38a55,55,0,0,1-5.86-.67,35.25,35.25,0,0,1-5.72-1.45,15.6,15.6,0,0,1-2.69-1.24,3.63,3.63,0,0,1-1.85-2.2,3.53,3.53,0,0,0,1.93,2.06,14.46,14.46,0,0,0,2.7,1.11,36.93,36.93,0,0,0,5.71,1.21,56.68,56.68,0,0,0,5.82.53l5.87.23,23.49.79,23.49.84Z" style="fill: rgb(255, 255, 255); transform-origin: 291.435px 332.367px 0px;" id="elfvh2zlajqh" class="animable"></path><path d="M539.31,314c-4.12.56-8.28.72-12.42,1s-8.3.35-12.45.49l-24.91.65-24.9.6c-4.14.12-8.29.25-12.43.47a58.84,58.84,0,0,0-6.14.56l-.72.16a2.82,2.82,0,0,0-.49.18.24.24,0,0,0,.06-.1.36.36,0,0,0,0-.23c-.05-.12-.06-.09,0-.09a1,1,0,0,0,.24.12c.2.08.44.15.68.22,1,.25,2,.43,3,.61,4.08.71,8.2,1.22,12.29,2.28a15.07,15.07,0,0,1,1.53.49,6,6,0,0,1,.77.37,1.77,1.77,0,0,1,.75.73.92.92,0,0,1,0,.76,1.07,1.07,0,0,1-.48.49,4.13,4.13,0,0,1-.83.32c-.53.14-1,.24-1.57.33-2.08.35-4.15.53-6.22.71-8.3.64-16.6,1-24.9,1.25l-24.9.85c-4.15.18-8.3.32-12.43.63-1,.08-2.07.17-3.09.31a10.86,10.86,0,0,0-1.51.28,5.07,5.07,0,0,0-1.36.67,2,2,0,0,0-.86,1.17,2,2,0,0,0,.34,1.43,7.66,7.66,0,0,0,2.25,2.1,7.5,7.5,0,0,1-2.33-2.05,2.08,2.08,0,0,1-.41-1.51,2.15,2.15,0,0,1,.89-1.31,5.58,5.58,0,0,1,1.41-.74,12,12,0,0,1,1.54-.31c1-.16,2.07-.27,3.1-.37,4.14-.38,8.29-.63,12.44-.84l24.89-1.11c8.29-.38,16.59-.69,24.85-1.36,2.06-.19,4.13-.38,6.14-.72.5-.09,1-.19,1.47-.32a3.47,3.47,0,0,0,.63-.24c.08,0,.1-.07.07,0h0a1.06,1.06,0,0,0-.37-.3,6.27,6.27,0,0,0-.64-.3,12.75,12.75,0,0,0-1.44-.46c-4-1-8.11-1.49-12.2-2.23-1-.18-2.05-.36-3.09-.64a7.27,7.27,0,0,1-.8-.25,2.53,2.53,0,0,1-.45-.24.8.8,0,0,1-.3-.37.7.7,0,0,1,0-.43,1,1,0,0,1,.17-.26,1.44,1.44,0,0,1,.51-.29l.42-.14c.27-.07.53-.12.8-.17a58.16,58.16,0,0,1,6.26-.55c4.15-.21,8.31-.33,12.46-.43q12.45-.31,24.91-.45l24.91-.37q6.23-.09,12.45-.26C531,314.52,535.18,314.44,539.31,314Z" style="fill: rgb(255, 255, 255); transform-origin: 462.583px 323.905px 0px;" id="elfl4cdhsdshg" class="animable"></path><path d="M478.65,311.55l-24.94,1.07c-8.3.41-16.63.75-24.87,1.66-1,.12-2,.25-3.06.42-.51.08-1,.18-1.5.29a4.73,4.73,0,0,0-1.28.46.91.91,0,0,0-.32.37c0,.06,0,.11.1.25a3.56,3.56,0,0,0,1.16.69,21,21,0,0,0,2.91.93l3,.77c.51.13,1,.27,1.53.45a3.28,3.28,0,0,1,.82.38.9.9,0,0,1,.27.3.65.65,0,0,1,.05.35.56.56,0,0,1-.13.28,1.18,1.18,0,0,1-.5.34,14.39,14.39,0,0,1-3.2.49c-1,.09-2.09.14-3.13.2-8.33.36-16.65.37-25,.25l12.48-.41c4.15-.15,8.31-.31,12.45-.59,1-.07,2.07-.15,3.1-.25a17.15,17.15,0,0,0,2.95-.48c.09,0,.19-.11.15-.07s-.06.21,0,.27,0,0,0,0a2.75,2.75,0,0,0-.59-.27c-.47-.16-1-.28-1.47-.41l-3-.75a23.58,23.58,0,0,1-3-.94,4.44,4.44,0,0,1-1.49-.92,1.28,1.28,0,0,1-.3-.5,1,1,0,0,1,0-.67,1.73,1.73,0,0,1,.64-.83,5,5,0,0,1,1.62-.64c.52-.13,1-.23,1.56-.32,1-.18,2.08-.32,3.12-.45,4.15-.46,8.31-.71,12.47-.94s8.32-.41,12.48-.51l12.48-.26C470.33,311.55,474.49,311.51,478.65,311.55Z" style="fill: rgb(255, 255, 255); transform-origin: 439.605px 316.551px 0px;" id="elraihlt52gh" class="animable"></path><path d="M140.51,301.6c4.16-.05,8.32,0,12.48,0l12.48.26c4.17.1,8.32.3,12.48.51s8.32.48,12.48.94c1,.13,2.07.27,3.11.45.52.09,1,.19,1.56.32a5,5,0,0,1,1.63.64,1.76,1.76,0,0,1,.64.83,1.09,1.09,0,0,1,0,.67,1.37,1.37,0,0,1-.31.5,4.25,4.25,0,0,1-1.49.91,23.16,23.16,0,0,1-3,.95l-3,.75c-.5.12-1,.25-1.46.41a3.22,3.22,0,0,0-.6.26s0,0,0,0a.33.33,0,0,0,0-.28.71.71,0,0,0,.15.08,17.18,17.18,0,0,0,3,.47c1,.11,2.06.19,3.1.26,4.14.28,8.3.43,12.46.58l12.47.42c-8.32.12-16.65.11-25-.25-1.05-.06-2.09-.11-3.13-.2a14.9,14.9,0,0,1-3.2-.49,1.2,1.2,0,0,1-.51-.34.61.61,0,0,1-.12-.28.56.56,0,0,1,0-.35.9.9,0,0,1,.26-.3,3.52,3.52,0,0,1,.82-.39c.52-.18,1-.31,1.53-.44l3-.77a24,24,0,0,0,2.9-.93,3.56,3.56,0,0,0,1.16-.69c.12-.15.12-.19.1-.25a.91.91,0,0,0-.32-.37,4.41,4.41,0,0,0-1.28-.46c-.49-.12-1-.21-1.49-.3-1-.16-2-.29-3.07-.41-8.24-.91-16.56-1.25-24.87-1.67Z" style="fill: rgb(255, 255, 255); transform-origin: 179.6px 306.588px 0px;" id="elz2wxez33e5" class="animable"></path></g><g id="freepik--Floor--inject-18" style="transform-origin: 375.385px 299.955px 0px;" class="animable animator-hidden"><polygon points="698.18 299.96 617.48 300.2 536.78 300.29 375.38 300.45 213.99 300.29 133.29 300.2 52.59 299.96 133.29 299.71 213.99 299.62 375.38 299.46 536.78 299.63 617.48 299.71 698.18 299.96" style="fill: rgb(38, 50, 56); transform-origin: 375.385px 299.955px 0px;" id="el60xddpw7zvi" class="animable"></polygon></g><g id="freepik--Birds--inject-18" style="transform-origin: 374.975px 227.066px 0px;" class="animable animator-hidden"><path d="M444,226a24,24,0,0,0-2.77-1.41,12,12,0,0,0-3.06-.92,2.58,2.58,0,0,0-1,0,1,1,0,0,0-.3.12l-.2.12a3.53,3.53,0,0,0-.35.25,14.18,14.18,0,0,0-1.21,1.07c-.75.74-1.43,1.52-2.11,2.32l.79-.22a23.75,23.75,0,0,0-3.13-.87,14.56,14.56,0,0,0-1.65-.23,6.51,6.51,0,0,0-.88,0,2.94,2.94,0,0,0-.49.08,3.37,3.37,0,0,0-.49.2,5.48,5.48,0,0,0-1.33,1.12,15.18,15.18,0,0,0-1,1.26,20.19,20.19,0,0,0-1.66,2.74c.73-.77,1.44-1.55,2.19-2.28.37-.36.75-.72,1.14-1a5.13,5.13,0,0,1,1.18-.8,3,3,0,0,1,1.25,0,11.63,11.63,0,0,1,1.47.3c1,.24,2,.56,2.94.89l.48.16.31-.38c.63-.78,1.3-1.55,2-2.29a12.66,12.66,0,0,1,1-1,2.39,2.39,0,0,1,.26-.21l.12-.09a.07.07,0,0,1,0,0,1.52,1.52,0,0,1,.55-.08,15.49,15.49,0,0,1,2.91.48C442.05,225.45,443,225.72,444,226Z" style="fill: rgb(38, 50, 56); transform-origin: 433.58px 227.626px 0px;" id="el2s8igpqe394" class="animable"></path><path d="M424.64,239a19.41,19.41,0,0,0-1.68-2,9.71,9.71,0,0,0-2.06-1.67,2.41,2.41,0,0,0-.76-.28h-.28l-.19,0a3.58,3.58,0,0,0-.35.09,11.66,11.66,0,0,0-1.26.44c-.81.33-1.58.72-2.35,1.12l.67.08a18.9,18.9,0,0,0-2.12-1.66,9.37,9.37,0,0,0-1.2-.69,4.2,4.2,0,0,0-.68-.28c-.12,0-.27-.06-.4-.09h-.44a4.69,4.69,0,0,0-1.37.44c-.42.2-.8.42-1.19.65a16.54,16.54,0,0,0-2.13,1.58c.8-.37,1.6-.74,2.4-1.06.4-.16.8-.32,1.2-.44a4,4,0,0,1,1.16-.24,2.38,2.38,0,0,1,1,.36,9.74,9.74,0,0,1,1,.69c.68.5,1.35,1,2,1.61l.31.28.36-.2c.73-.4,1.49-.78,2.23-1.14a11.65,11.65,0,0,1,1.12-.47,1.62,1.62,0,0,1,.27-.08l.12,0s0,0,0,0a1.21,1.21,0,0,1,.45.12,12.24,12.24,0,0,1,2.09,1.28C423.28,237.93,424,238.45,424.64,239Z" style="fill: rgb(38, 50, 56); transform-origin: 415.745px 236.53px 0px;" id="eld7s2ytd4cl" class="animable"></path><path d="M510.64,190.22a19.22,19.22,0,0,0-2.37-1,9.72,9.72,0,0,0-2.58-.59,2,2,0,0,0-.81.09,1,1,0,0,0-.24.11,1.11,1.11,0,0,0-.16.12,3.42,3.42,0,0,0-.28.22,10.59,10.59,0,0,0-.94,1c-.58.65-1.1,1.33-1.62,2l.64-.22a18.22,18.22,0,0,0-2.64-.56,12.27,12.27,0,0,0-1.38-.1,6.51,6.51,0,0,0-.73.06,3.1,3.1,0,0,0-.39.09,2.93,2.93,0,0,0-.4.19,4.52,4.52,0,0,0-1,1,13,13,0,0,0-.78,1.1,16.53,16.53,0,0,0-1.23,2.36c.57-.68,1.11-1.36,1.7-2a11,11,0,0,1,.88-.92,4.85,4.85,0,0,1,.93-.73,2.7,2.7,0,0,1,1-.1,10.68,10.68,0,0,1,1.23.17c.83.15,1.67.36,2.49.58l.41.11.23-.34c.47-.68,1-1.35,1.5-2,.26-.32.53-.64.8-.92l.2-.19.1-.08,0,0a1.18,1.18,0,0,1,.45-.09,13.05,13.05,0,0,1,2.44.23C509,189.89,509.8,190.06,510.64,190.22Z" style="fill: rgb(38, 50, 56); transform-origin: 502.185px 192.356px 0px;" id="el4uc1wdco3ti" class="animable"></path><path d="M344.88,207.18a26.8,26.8,0,0,0-3.19-2.18,14.93,14.93,0,0,0-3.62-1.64,3.51,3.51,0,0,0-1.21-.1,1.6,1.6,0,0,0-.39.1l-.27.12a4.13,4.13,0,0,0-.47.26,18.67,18.67,0,0,0-1.67,1.12c-1,.79-2,1.64-3,2.52l1-.14a27.74,27.74,0,0,0-3.72-1.59,17.6,17.6,0,0,0-2-.55,7.53,7.53,0,0,0-1.1-.13,4.1,4.1,0,0,0-.6,0,5,5,0,0,0-.64.16,6.87,6.87,0,0,0-1.82,1.17,17.7,17.7,0,0,0-1.47,1.39,24.5,24.5,0,0,0-2.49,3.1c1-.83,2-1.67,3.07-2.45.52-.39,1-.77,1.58-1.1a6.25,6.25,0,0,1,1.57-.79,3.67,3.67,0,0,1,1.55.15,13.11,13.11,0,0,1,1.76.61c1.18.46,2.36,1,3.49,1.57l.57.28.44-.42c.9-.86,1.85-1.7,2.8-2.5a18,18,0,0,1,1.43-1.12l.36-.22.16-.09.06,0a2,2,0,0,1,.7,0,19.15,19.15,0,0,1,3.51,1.06C342.51,206.21,343.69,206.7,344.88,207.18Z" style="fill: rgb(38, 50, 56); transform-origin: 331.55px 207.018px 0px;" id="el8oxgbvr6h2m" class="animable"></path><path d="M236.21,262.48a19,19,0,0,0-2.17-1.39,10.09,10.09,0,0,0-2.45-1,2.12,2.12,0,0,0-.81,0,.84.84,0,0,0-.26.07l-.18.09a3.14,3.14,0,0,0-.31.18,11,11,0,0,0-1.08.78,24.75,24.75,0,0,0-1.93,1.75l.67-.12a20.85,20.85,0,0,0-2.52-1,9.36,9.36,0,0,0-1.34-.32,4.4,4.4,0,0,0-.73-.07,2.83,2.83,0,0,0-.41,0,3.31,3.31,0,0,0-.42.12,4.56,4.56,0,0,0-1.19.82,12.28,12.28,0,0,0-1,1,17.32,17.32,0,0,0-1.6,2.12c.67-.58,1.32-1.16,2-1.7.34-.27.68-.54,1-.77a4.39,4.39,0,0,1,1-.56,2.4,2.4,0,0,1,1,.07,9.54,9.54,0,0,1,1.19.37c.79.28,1.59.62,2.36,1l.38.18.29-.3c.58-.59,1.2-1.17,1.81-1.72a11.09,11.09,0,0,1,.94-.78l.23-.15.11-.07,0,0a1.34,1.34,0,0,1,.46,0,12.08,12.08,0,0,1,2.37.63C234.61,261.88,235.4,262.19,236.21,262.48Z" style="fill: rgb(38, 50, 56); transform-origin: 227.345px 262.781px 0px;" id="ela19j3ljjzjs" class="animable"></path><path d="M257.34,259.06a29,29,0,0,0-2.39-3,15.21,15.21,0,0,0-3-2.63,3.53,3.53,0,0,0-1.12-.46,2.62,2.62,0,0,0-.41,0l-.29,0a4.51,4.51,0,0,0-.53.1,18.66,18.66,0,0,0-1.92.58c-1.23.44-2.4,1-3.59,1.52l1,.17A28.42,28.42,0,0,0,242,252.7a15.24,15.24,0,0,0-1.74-1.12,8.54,8.54,0,0,0-1-.45,3.28,3.28,0,0,0-.58-.16,3.61,3.61,0,0,0-.66,0,6.91,6.91,0,0,0-2.08.57,18,18,0,0,0-1.82.89,25.72,25.72,0,0,0-3.3,2.22c1.23-.48,2.44-1,3.67-1.42.6-.22,1.22-.43,1.83-.59a6.29,6.29,0,0,1,1.74-.28,3.57,3.57,0,0,1,1.43.6A15.24,15.24,0,0,1,241,254c1,.78,1.95,1.66,2.87,2.53l.45.44.55-.28c1.11-.55,2.27-1.07,3.41-1.55a13.77,13.77,0,0,1,1.71-.64,3.45,3.45,0,0,1,.4-.11l.18,0s0,0,.07,0a1.77,1.77,0,0,1,.66.2,19,19,0,0,1,3.05,2.06C255.37,257.42,256.34,258.25,257.34,259.06Z" style="fill: rgb(38, 50, 56); transform-origin: 244.08px 255.007px 0px;" id="elljke7xb9w" class="animable"></path><path d="M531.47,209.23a29,29,0,0,0-2.4-3,14.62,14.62,0,0,0-3-2.63,3.23,3.23,0,0,0-1.12-.46,1.29,1.29,0,0,0-.4,0l-.29,0-.53.1a18,18,0,0,0-1.92.59c-1.24.44-2.41,1-3.59,1.52l1,.16a29.59,29.59,0,0,0-3.08-2.62,16.25,16.25,0,0,0-1.75-1.11,7.06,7.06,0,0,0-1-.46,3.39,3.39,0,0,0-.59-.15,4.63,4.63,0,0,0-.65,0,7.19,7.19,0,0,0-2.09.57c-.63.27-1.23.58-1.81.9A24.52,24.52,0,0,0,505,204.8c1.23-.49,2.44-1,3.67-1.42a16.2,16.2,0,0,1,1.83-.59,6.39,6.39,0,0,1,1.74-.29,3.61,3.61,0,0,1,1.43.61,12.88,12.88,0,0,1,1.51,1.1c1,.79,2,1.66,2.86,2.54l.46.43.55-.27c1.11-.56,2.27-1.08,3.41-1.56a17.75,17.75,0,0,1,1.7-.64c.14,0,.28-.08.41-.1l.18,0s0,0,.07,0a1.88,1.88,0,0,1,.66.21,18.66,18.66,0,0,1,3,2C529.49,207.6,530.47,208.42,531.47,209.23Z" style="fill: rgb(38, 50, 56); transform-origin: 518.235px 205.194px 0px;" id="elc2etuwezlyp" class="animable"></path></g><g id="freepik--Shadow--inject-18" style="transform-origin: 399.245px 439.93px 0px;" class="animable"><ellipse cx="171.14" cy="439.93" rx="43.23" ry="5.03" style="fill: rgb(235, 235, 235); transform-origin: 171.14px 439.93px 0px;" id="elwj7rivfmk7" class="animable"></ellipse><ellipse cx="584.34" cy="439.93" rx="86.24" ry="8.37" style="fill: rgb(235, 235, 235); transform-origin: 584.34px 439.93px 0px;" id="el652r1nbq0ee" class="animable"></ellipse></g><g id="freepik--Trees--inject-18" style="transform-origin: 375px 183.375px 0px;" class="animable"><path d="M645.76,140.94s-.45,41.68,13.39,86.31c8,25.73,24.73,52.44,38.73,72.71H674.59s-20.09-49.77-24.53-72.14c-9.91-49.87-6-87.59-6-87.59Z" style="fill: rgb(255, 199, 39); transform-origin: 670.59px 220.095px 0px;" id="eln344lbzs2t" class="animable"></path><g id="elqz2k9q6ed6l"><path d="M645.76,140.94s-.45,41.68,13.39,86.31c8,25.73,24.73,52.44,38.73,72.71H674.59s-20.09-49.77-24.53-72.14c-9.91-49.87-6-87.59-6-87.59Z" style="opacity: 0.3; transform-origin: 670.59px 220.095px 0px;" class="animable"></path></g><path d="M668.53,284.42c.07.18.14.36.2.55l3.39-.06c1.94-.05,3.88-.1,5.81-.22-1.93-.11-3.87-.17-5.81-.21Z" style="fill: rgb(255, 199, 39); transform-origin: 673.23px 284.695px 0px;" id="elgbnd0lnr2jt" class="animable"></path><path d="M670.58,275.84c1,.07,1.94.1,2.9.15l2.91.07c1.94.06,3.88.06,5.81.07h.17l-.35-.57c-1.87,0-3.75,0-5.63.07l-2.91.07C672.52,275.75,671.55,275.78,670.58,275.84Z" style="fill: rgb(255, 199, 39); transform-origin: 676.475px 275.845px 0px;" id="ellfy5tuzatl" class="animable"></path><path d="M673.59,272.08c1,.06,1.94.09,2.91.14l2.9.07.68,0-.27-.46h-.41l-2.9.08C675.53,272,674.56,272,673.59,272.08Z" style="fill: rgb(255, 199, 39); transform-origin: 676.835px 272.06px 0px;" id="el6bsnkhumqk7" class="animable"></path><path d="M656.35,250.35c0,.11.07.22.11.33,1.29,0,2.57-.08,3.85-.16C659,250.44,657.68,250.39,656.35,250.35Z" style="fill: rgb(255, 199, 39); transform-origin: 658.33px 250.515px 0px;" id="elu1c5uajt7vg" class="animable"></path><path d="M654.7,245.18c0,.17.11.34.17.51l1.89,0c1.94,0,3.88-.1,5.81-.22-1.93-.11-3.87-.17-5.81-.21Z" style="fill: rgb(255, 199, 39); transform-origin: 658.635px 245.435px 0px;" id="elk12blqj78i" class="animable"></path><path d="M648.92,221.83l.06.32c1.17,0,2.35-.08,3.52-.16C651.31,221.92,650.12,221.87,648.92,221.83Z" style="fill: rgb(255, 199, 39); transform-origin: 650.71px 221.99px 0px;" id="elrm9zht4ooeg" class="animable"></path><path d="M646.48,199c1,.06,1.93.09,2.9.14l2.67.07-.09-.42-2.58.07C648.41,198.91,647.44,198.94,646.48,199Z" style="fill: rgb(255, 199, 39); transform-origin: 649.265px 199px 0px;" id="el8269q7xh09k" class="animable"></path><path d="M643.79,178.22a1.09,1.09,0,0,1,0,.18l1.74-.09C645,178.27,644.37,178.25,643.79,178.22Z" style="fill: rgb(255, 199, 39); transform-origin: 644.66px 178.31px 0px;" id="el8b057thbzv4" class="animable"></path><path d="M648.69,196.2c.93.06,1.86.09,2.79.13,0-.09,0-.18-.05-.26C650.52,196.11,649.6,196.14,648.69,196.2Z" style="fill: rgb(255, 199, 39); transform-origin: 650.085px 196.2px 0px;" id="el54flhjog3l9" class="animable"></path><path d="M675,114.26l-7-1.68,6.18,4.28a28.07,28.07,0,0,1-4.57,8.3l-7-3.12,4.93,5.41a29.49,29.49,0,0,1-2.53,2.29l-4.1-2,2.3,3.4a38.79,38.79,0,0,1-5.72,3.34l-3.31-3.69,1.89,4.34a60.08,60.08,0,0,1-12.2,3.75l28.78-50a45.86,45.86,0,0,1,3,11.73l-3,0,3.22,1.69c.1,1.28.16,2.61.14,4l-7.23-.74,7,4.07A33.24,33.24,0,0,1,675,114.26Z" style="fill: rgb(69, 90, 100); transform-origin: 659.942px 113.88px 0px;" id="el4fg0lthbudi" class="animable"></path><path d="M685.45,139.92l-2.63-3.16,1.37,4.34a21.82,21.82,0,0,1-4.67,3.11l-3.07-5.82.25,7a23.24,23.24,0,0,1-3.19.8l-2-4.19-.18,4.49a29.6,29.6,0,0,1-5.71-.05l-1.09-7.31-1.9,6.88q-1.44-.26-3-.66v-4.79l-2.53,4.06a69.31,69.31,0,0,1-13-5.79l47-7.86A24.48,24.48,0,0,1,685.45,139.92Z" style="fill: rgb(55, 71, 79); transform-origin: 667.6px 138.787px 0px;" id="eli2jj5un7oz" class="animable"></path><path d="M644.12,138.88a81.33,81.33,0,0,1-10.71-14l5.13-3-6.27,1c-.95-1.73-1.78-3.44-2.49-5.11l5.24-3.45-6.32.68c-.52-1.45-1-2.88-1.31-4.28l9.08-3.28-10-1.56a39.47,39.47,0,0,1-.17-9.37h0l11.83-2.67L627,92.07c.17-.8.36-1.58.58-2.35L634,90l-5.74-2.39a43.12,43.12,0,0,1,2.26-5.43l9.14,1.93L632,79.4a48.25,48.25,0,0,1,10.47-12.65Z" style="fill: rgb(55, 71, 79); transform-origin: 635.11px 102.815px 0px;" id="elod51izhimon" class="animable"></path><path d="M627.25,132.41l2-5.09-4.08,4h0c-.79-.43-1.58-.88-2.36-1.35l2.12-3.53-3.37,2.77q-1.9-1.18-3.74-2.54l3.25-4.22L615.7,125a41.81,41.81,0,0,1-6.12-6.07l6.59-5.44-8.3,3.13a28,28,0,0,1-3.17-6.19l6.51-4.31-7.29,1.79a25.84,25.84,0,0,1-.65-3.69l9.78-4.34-9.81-.59a30.8,30.8,0,0,1,.83-5l7-.43L604.74,92a47.79,47.79,0,0,1,5-10.49s9.89,39,34.4,57.4A87.76,87.76,0,0,1,627.25,132.41Z" style="fill: rgb(69, 90, 100); transform-origin: 623.69px 110.21px 0px;" id="elds7xmyjsqae" class="animable"></path><path d="M631.32,143.44,630.15,141l.42,2.53c-.7.09-1.4.15-2.07.18l-.81-3.23-.89,3.24a21.89,21.89,0,0,1-2.86-.25l.45-5.34L621.81,143a21.09,21.09,0,0,1-5.59-2.36l.87-4.08L615,139.84a24,24,0,0,1-2-1.56l2.63-4.38-4,3a29.74,29.74,0,0,1-3-3.51l2.35-2.64-3,1.76c-.31-.46-.61-.92-.88-1.37l1.59-1.46-2.11.59a34.71,34.71,0,0,1-3-6.82c13.16,12.87,40.7,15.34,40.7,15.34A39.81,39.81,0,0,1,631.32,143.44Z" style="fill: rgb(55, 71, 79); transform-origin: 623.93px 133.585px 0px;" id="eltr49qwg04y" class="animable"></path><path d="M667.49,158.37l-.7-2.25-.28,2.35a18.61,18.61,0,0,1-2.69,0l.23-3.88-1.55,3.74a18,18,0,0,1-4-1l.6-3.83-2.45,3A20.16,20.16,0,0,1,654.3,155l1.6-2.92-2.52,2.2a21.72,21.72,0,0,1-1.72-1.53l2.22-3.51L650,150.84c-.52-.63-1-1.3-1.54-2l1.87-1.6-2.45.74a46.2,46.2,0,0,1-4.49-9.23s17.06,14.65,31.56,17.42A21.14,21.14,0,0,1,667.49,158.37Z" style="fill: rgb(69, 90, 100); transform-origin: 659.17px 148.634px 0px;" id="elzhyt4dvrz8" class="animable"></path><path d="M636.85,154.36l-2.53-2.5,1.49,3.55a15.92,15.92,0,0,1-2.4,1.85l-2.13-2,1.15,2.55a13.46,13.46,0,0,1-1.28.6l-2.37-3.54.68,4.09a15.16,15.16,0,0,1-4.27.47l-1.3-3-.15,2.86c-.66-.08-1.29-.18-1.91-.31l-.45-2.9-.63,2.63a22.1,22.1,0,0,1-5.8-2.46c15.46-2.08,28.75-15.91,28.75-15.91C641.94,147,639.53,151.44,636.85,154.36Z" style="fill: rgb(69, 90, 100); transform-origin: 629.325px 149.889px 0px;" id="elh0m4ihofwpq" class="animable"></path><path d="M650.74,149.81a5.78,5.78,0,1,1-4.47-6.85A5.79,5.79,0,0,1,650.74,149.81Z" style="fill: rgb(255, 199, 39); transform-origin: 645.084px 148.617px 0px;" id="elwftmayua7" class="animable"></path><g id="elqh06svbi9i"><path d="M650.74,149.81a5.78,5.78,0,1,1-4.47-6.85A5.79,5.79,0,0,1,650.74,149.81Z" style="opacity: 0.4; transform-origin: 645.084px 148.617px 0px;" class="animable"></path></g><path d="M646.91,143.75a5.78,5.78,0,1,1-4.46-6.85A5.78,5.78,0,0,1,646.91,143.75Z" style="fill: rgb(255, 199, 39); transform-origin: 641.255px 142.555px 0px;" id="elhirzxfxcs3" class="animable"></path><g id="elwptw5kcc4o"><path d="M646.91,143.75a5.78,5.78,0,1,1-4.46-6.85A5.78,5.78,0,0,1,646.91,143.75Z" style="opacity: 0.3; transform-origin: 641.255px 142.555px 0px;" class="animable"></path></g><path d="M652.79,143.93a5.78,5.78,0,1,1-4.46-6.85A5.79,5.79,0,0,1,652.79,143.93Z" style="fill: rgb(255, 199, 39); transform-origin: 647.135px 142.735px 0px;" id="elwqqantthowm" class="animable"></path><g id="ele89thd0lseg"><path d="M652.79,143.93a5.78,5.78,0,1,1-4.46-6.85A5.79,5.79,0,0,1,652.79,143.93Z" style="opacity: 0.2; transform-origin: 647.135px 142.735px 0px;" class="animable"></path></g><path d="M578.61,181.91A186,186,0,0,0,591.35,246c7.6,19.1,56.17,38.93,69.49,54H638.67s-51.75-36.95-56-53.55c-9.43-37-5.75-65-5.75-65Z" style="fill: rgb(255, 199, 39); transform-origin: 618.526px 240.725px 0px;" id="elvar7dxf0lr8" class="animable"></path><g id="eluhwwiwh7xuq"><path d="M578.61,181.91A186,186,0,0,0,591.35,246c7.6,19.1,56.17,38.93,69.49,54H638.67s-51.75-36.95-56-53.55c-9.43-37-5.75-65-5.75-65Z" style="opacity: 0.3; transform-origin: 618.526px 240.725px 0px;" class="animable"></path></g><path d="M623.4,288.43l.51.39,2.63,0c1.84,0,3.69-.08,5.53-.16-1.84-.09-3.69-.13-5.53-.17Z" style="fill: rgb(255, 199, 39); transform-origin: 627.735px 288.625px 0px;" id="eluvjk3jwt17" class="animable"></path><path d="M627.46,282.05c.92.06,1.84.07,2.76.12l2.77.05,3.57,0-.66-.4c-1,0-1.94,0-2.91,0l-2.77.05Z" style="fill: rgb(255, 199, 39); transform-origin: 632.01px 282.02px 0px;" id="ele2sx3581xh9" class="animable"></path><path d="M633.68,283.48l2.77.1,2.32.05-.48-.3-1.84,0C635.52,283.41,634.61,283.43,633.68,283.48Z" style="fill: rgb(255, 199, 39); transform-origin: 636.225px 283.48px 0px;" id="el55x0diq87rt" class="animable"></path><path d="M594.52,263.14l.22.23c1.11,0,2.2-.06,3.31-.11C596.88,263.2,595.69,263.17,594.52,263.14Z" style="fill: rgb(255, 199, 39); transform-origin: 596.285px 263.255px 0px;" id="eljuioxdhoplm" class="animable"></path><path d="M591,259.31c.1.11.21.23.3.35l.83,0c1.84,0,3.69-.07,5.53-.16-1.84-.08-3.69-.12-5.53-.16Z" style="fill: rgb(255, 199, 39); transform-origin: 594.33px 259.485px 0px;" id="elkjfhgucs9a" class="animable"></path><path d="M581.61,242a1.55,1.55,0,0,0,.06.23c1.11,0,2.23-.06,3.35-.11C583.88,242,582.75,242,581.61,242Z" style="fill: rgb(255, 199, 39); transform-origin: 583.315px 242.115px 0px;" id="eljlmicjidpx" class="animable"></path><path d="M579.28,225c.93.05,1.85.07,2.77.11l2.54,0c0-.1-.06-.21-.08-.31l-2.46,0C581.13,224.94,580.21,225,579.28,225Z" style="fill: rgb(255, 199, 39); transform-origin: 581.935px 224.955px 0px;" id="elu1kwimvg26" class="animable"></path><path d="M576.73,209.59a.57.57,0,0,0,0,.13l1.65-.07Z" style="fill: rgb(255, 199, 39); transform-origin: 577.553px 209.655px 0px;" id="el42r93g1ttq8" class="animable"></path><path d="M581.39,222.93c.89,0,1.77.07,2.66.1l0-.2Z" style="fill: rgb(255, 199, 39); transform-origin: 582.72px 222.93px 0px;" id="ellu9tiaove0e" class="animable"></path><path d="M594.85,156.18l-5.65,0,5.56,2.1a22.28,22.28,0,0,1-1.92,7.24l-5.94-1.05,4.82,3.2a22,22,0,0,1-1.5,2.25l-3.54-.79,2.42,2.17a31,31,0,0,1-3.74,3.66l-3.25-2.19,2.28,3a47.53,47.53,0,0,1-8.64,5.23l12.48-43.88a36.5,36.5,0,0,1,4.53,8.43l-2.35.55,2.79.68c.33,1,.63,2,.88,3l-5.69.82,6.19,1.77A24.78,24.78,0,0,1,594.85,156.18Z" style="fill: rgb(69, 90, 100); transform-origin: 585.3px 159.06px 0px;" id="elvvvoxz5u5e" class="animable"></path><path d="M607.82,173.85l-2.63-1.92,1.89,3.07a17.78,17.78,0,0,1-3,3.28l-3.47-3.88,1.53,5.31a19.18,19.18,0,0,1-2.3,1.23l-2.35-2.83.72,3.48a23.82,23.82,0,0,1-4.38,1.06l-2.25-5.4-.13,5.64c-.77.05-1.57.07-2.4.07l-.92-3.69L587,182.88a55.07,55.07,0,0,1-11.07-1.95l34.56-15.06A19.41,19.41,0,0,1,607.82,173.85Z" style="fill: rgb(55, 71, 79); transform-origin: 593.21px 174.415px 0px;" id="el3zfgq5tw292" class="animable"></path><path d="M575.91,181A64.22,64.22,0,0,1,565,172.33l3.35-3.32-4.61,2q-1.59-1.72-2.89-3.44l3.35-3.65-4.71,1.73a34.87,34.87,0,0,1-1.83-3l6.34-4.26-8,.73a31.85,31.85,0,0,1-1.93-7.16h0l8.56-4.31-8.87.74c0-.65,0-1.28,0-1.91l5-1-4.85-.73a34.1,34.1,0,0,1,.69-4.6l7.38-.28-6.78-2.11A38.4,38.4,0,0,1,560.78,126Z" style="fill: rgb(55, 71, 79); transform-origin: 564.835px 153.5px 0px;" id="elzk12i0tglcl" class="animable"></path><path d="M561.73,179.26l.52-4.28-2.37,3.83h0c-.69-.18-1.38-.38-2.07-.59l1-3.11-2,2.77q-1.69-.56-3.36-1.23l1.68-3.87-3.58,3a32.84,32.84,0,0,1-5.85-3.48l4-5.44-5.77,4a22.11,22.11,0,0,1-3.62-4.15l4.16-4.55L539.14,165a19.43,19.43,0,0,1-1.21-2.7l6.67-5.21L537,158.48a24,24,0,0,1-.32-4l5.31-1.68-5.24-.26a37.64,37.64,0,0,1,1.79-9s15.06,28,37.41,37.43A69.52,69.52,0,0,1,561.73,179.26Z" style="fill: rgb(69, 90, 100); transform-origin: 556.315px 162.255px 0px;" id="elhbax45fqyai" class="animable"></path><path d="M567,186.94l-1.36-1.64.81,1.86c-.53.21-1,.38-1.56.54l-1.24-2.32-.06,2.65a18.27,18.27,0,0,1-2.24.36l-.68-4.19-1,4.25a16.45,16.45,0,0,1-4.74-.74l-.12-3.29-1,2.9a18.86,18.86,0,0,1-1.83-.82l1.18-3.86-2.51,3.12a23.94,23.94,0,0,1-2.95-2.12l1.29-2.48L547,183.08c-.33-.29-.65-.59-.94-.88l.93-1.42-1.5.85a27.59,27.59,0,0,1-3.64-4.65c12.56,7.35,34.16,4,34.16,4A31.76,31.76,0,0,1,567,186.94Z" style="fill: rgb(55, 71, 79); transform-origin: 558.93px 182.715px 0px;" id="el84bk8eltavu" class="animable"></path><path d="M597.58,191.45l-1-1.59.24,1.85a14.24,14.24,0,0,1-2.07.51l-.57-3-.47,3.17a14,14,0,0,1-3.23,0l-.28-3-1.3,2.76a15.73,15.73,0,0,1-2.12-.68l.67-2.54L586,191a16.6,16.6,0,0,1-1.6-.85l1-3.11-2.69,2c-.52-.38-1-.8-1.57-1.26l1.13-1.59-1.74,1a36,36,0,0,1-5.22-6.21s15.9,8,27.55,7.3A16.7,16.7,0,0,1,597.58,191.45Z" style="fill: rgb(69, 90, 100); transform-origin: 589.085px 186.732px 0px;" id="eljrobfrsryn" class="animable"></path><path d="M573.31,194.26l-2.42-1.44,1.83,2.44a12.63,12.63,0,0,1-1.5,1.88l-2-1.13,1.38,1.74a8.08,8.08,0,0,1-.87.7l-2.49-2.25,1.3,3a11.83,11.83,0,0,1-3.18,1.18l-1.57-2,.44,2.22c-.52.07-1,.11-1.52.13l-.91-2.13,0,2.13a17.56,17.56,0,0,1-4.92-.78c11.46-4.56,19-17.72,19-17.72C575.8,187.62,574.8,191.5,573.31,194.26Z" style="fill: rgb(69, 90, 100); transform-origin: 566.38px 191.48px 0px;" id="el0i63g66m4bdu" class="animable"></path><path d="M583.09,188.1a4.58,4.58,0,1,1-4.74-4.4A4.57,4.57,0,0,1,583.09,188.1Z" style="fill: rgb(255, 199, 39); transform-origin: 578.513px 188.277px 0px;" id="elabz4obk8wh5" class="animable"></path><g id="elojy63wl8ei8"><path d="M583.09,188.1a4.58,4.58,0,1,1-4.74-4.4A4.57,4.57,0,0,1,583.09,188.1Z" style="opacity: 0.4; transform-origin: 578.513px 188.277px 0px;" class="animable"></path></g><path d="M579,184.19a4.57,4.57,0,1,1-4.74-4.41A4.58,4.58,0,0,1,579,184.19Z" style="fill: rgb(255, 199, 39); transform-origin: 574.433px 184.347px 0px;" id="el1hxasks438x" class="animable"></path><g id="elxvyotr3kgm"><path d="M579,184.19a4.57,4.57,0,1,1-4.74-4.41A4.58,4.58,0,0,1,579,184.19Z" style="opacity: 0.3; transform-origin: 574.433px 184.347px 0px;" class="animable"></path></g><path d="M583.53,183.2a4.57,4.57,0,1,1-4.74-4.41A4.58,4.58,0,0,1,583.53,183.2Z" style="fill: rgb(255, 199, 39); transform-origin: 578.963px 183.357px 0px;" id="el11xkwi2iea7" class="animable"></path><g id="el5x791wadk8f"><path d="M583.53,183.2a4.57,4.57,0,1,1-4.74-4.41A4.58,4.58,0,0,1,583.53,183.2Z" style="opacity: 0.2; transform-origin: 578.963px 183.357px 0px;" class="animable"></path></g><path d="M134.35,181.91A186,186,0,0,1,121.61,246c-7.59,19.1-56.17,38.93-69.49,54H74.29s51.75-36.95,56-53.55c9.43-37,5.75-65,5.75-65Z" style="fill: rgb(255, 199, 39); transform-origin: 94.4336px 240.725px 0px;" id="elhcj7rup0q6r" class="animable"></path><g id="el941k5qq4ud"><path d="M134.35,181.91A186,186,0,0,1,121.61,246c-7.59,19.1-56.17,38.93-69.49,54H74.29s51.75-36.95,56-53.55c9.43-37,5.75-65,5.75-65Z" style="opacity: 0.3; transform-origin: 94.4336px 240.725px 0px;" class="animable"></path></g><path d="M89.56,288.43l-.51.39-2.63,0c-1.84,0-3.69-.08-5.53-.16,1.84-.09,3.69-.13,5.53-.17Z" style="fill: rgb(255, 199, 39); transform-origin: 85.225px 288.625px 0px;" id="elec9mkeyeoqs" class="animable"></path><path d="M85.5,282.05c-.92.06-1.84.07-2.76.12l-2.77.05-3.57,0,.66-.4c1,0,1.94,0,2.91,0l2.77.05Z" style="fill: rgb(255, 199, 39); transform-origin: 80.95px 282.02px 0px;" id="eldg59nzwib3i" class="animable"></path><path d="M79.28,283.48l-2.77.1-2.32.05c.16-.09.32-.2.48-.3l1.84,0C77.44,283.41,78.35,283.43,79.28,283.48Z" style="fill: rgb(255, 199, 39); transform-origin: 76.735px 283.48px 0px;" id="elmddliw6032k" class="animable"></path><path d="M118.44,263.14l-.22.23c-1.11,0-2.2-.06-3.31-.11C116.09,263.2,117.27,263.17,118.44,263.14Z" style="fill: rgb(255, 199, 39); transform-origin: 116.675px 263.255px 0px;" id="elmfpj8isaz5" class="animable"></path><path d="M122,259.31c-.1.11-.21.23-.3.35l-.83,0c-1.84,0-3.69-.07-5.53-.16,1.84-.08,3.69-.12,5.53-.16Z" style="fill: rgb(255, 199, 39); transform-origin: 118.67px 259.485px 0px;" id="elu4hwsm5m8km" class="animable"></path><path d="M131.35,242a1.55,1.55,0,0,1-.06.23c-1.11,0-2.23-.06-3.35-.11C129.08,242,130.21,242,131.35,242Z" style="fill: rgb(255, 199, 39); transform-origin: 129.645px 242.115px 0px;" id="el1svolmn75id" class="animable"></path><path d="M133.68,225c-.93.05-1.85.07-2.77.11l-2.54,0c0-.1.06-.21.08-.31l2.46,0C131.83,224.94,132.75,225,133.68,225Z" style="fill: rgb(255, 199, 39); transform-origin: 131.025px 224.955px 0px;" id="elgwewnfxpna" class="animable"></path><path d="M136.23,209.59a.57.57,0,0,1,0,.13l-1.65-.07Z" style="fill: rgb(255, 199, 39); transform-origin: 135.407px 209.655px 0px;" id="ellvio86f76kb" class="animable"></path><path d="M131.57,222.93c-.88,0-1.77.07-2.66.1,0-.07,0-.13.05-.2Z" style="fill: rgb(255, 199, 39); transform-origin: 130.24px 222.93px 0px;" id="ellgx74hqcsc8" class="animable"></path><path d="M118.11,156.18l5.65,0-5.56,2.1a22.28,22.28,0,0,0,1.92,7.24l5.94-1.05-4.82,3.2a22,22,0,0,0,1.5,2.25l3.54-.79-2.42,2.17A31,31,0,0,0,127.6,175l3.25-2.19-2.28,3a47.53,47.53,0,0,0,8.64,5.23l-12.48-43.88a36.5,36.5,0,0,0-4.53,8.43l2.35.55-2.79.68c-.33,1-.63,2-.88,3l5.69.82-6.19,1.77A26.11,26.11,0,0,0,118.11,156.18Z" style="fill: rgb(69, 90, 100); transform-origin: 127.66px 159.1px 0px;" id="elemqgdsl5mh" class="animable"></path><path d="M105.14,173.85l2.63-1.92L105.88,175a17.78,17.78,0,0,0,3,3.28l3.47-3.88-1.53,5.31a19.18,19.18,0,0,0,2.3,1.23l2.35-2.83-.72,3.48a23.82,23.82,0,0,0,4.38,1.06l2.25-5.4.13,5.64c.77.05,1.57.07,2.4.07l.92-3.69,1.16,3.61a55.07,55.07,0,0,0,11.07-1.95l-34.56-15.06A19.41,19.41,0,0,0,105.14,173.85Z" style="fill: rgb(55, 71, 79); transform-origin: 119.78px 174.415px 0px;" id="el9lh98q3w65c" class="animable"></path><path d="M137.05,181a64.22,64.22,0,0,0,10.89-8.66L144.6,169l4.6,2q1.59-1.72,2.89-3.44l-3.35-3.65,4.71,1.73a34.87,34.87,0,0,0,1.83-3l-6.34-4.26,8,.73a31.85,31.85,0,0,0,1.93-7.16h0l-8.56-4.31,8.87.74c0-.65,0-1.28,0-1.91l-5-1,4.85-.73a34.1,34.1,0,0,0-.69-4.6l-7.38-.28,6.78-2.11A38.4,38.4,0,0,0,152.18,126Z" style="fill: rgb(55, 71, 79); transform-origin: 148.115px 153.5px 0px;" id="elnz7y9d19t1" class="animable"></path><path d="M151.23,179.26l-.52-4.28,2.37,3.83h0c.69-.18,1.38-.38,2.07-.59l-1-3.11,2.05,2.77q1.69-.56,3.36-1.23l-1.68-3.87,3.58,3a32.84,32.84,0,0,0,5.85-3.48l-4-5.44,5.77,4a22.53,22.53,0,0,0,3.63-4.15l-4.17-4.55,5.24,2.77a19.43,19.43,0,0,0,1.21-2.7l-6.67-5.21,7.64,1.43a24,24,0,0,0,.32-4L171,152.82l5.24-.26a37.64,37.64,0,0,0-1.79-9s-15.06,28-37.41,37.43A69.52,69.52,0,0,0,151.23,179.26Z" style="fill: rgb(69, 90, 100); transform-origin: 156.66px 162.275px 0px;" id="elofj7dnxni9" class="animable"></path><path d="M146,186.94l1.36-1.64-.81,1.86c.53.21,1.05.38,1.56.54l1.24-2.32.06,2.65a18.27,18.27,0,0,0,2.24.36l.68-4.19,1,4.25a16.45,16.45,0,0,0,4.74-.74l.12-3.29,1,2.9a18.86,18.86,0,0,0,1.83-.82l-1.18-3.86,2.51,3.12a23.94,23.94,0,0,0,2.95-2.12l-1.29-2.48,1.93,1.92c.33-.29.65-.59.94-.88l-.93-1.42,1.5.85a27.59,27.59,0,0,0,3.64-4.65c-12.56,7.35-34.16,4-34.16,4A31.76,31.76,0,0,0,146,186.94Z" style="fill: rgb(55, 71, 79); transform-origin: 154.01px 182.715px 0px;" id="elkg644zf11vq" class="animable"></path><path d="M115.38,191.45l1-1.59-.24,1.85a14.24,14.24,0,0,0,2.07.51l.57-3,.47,3.17a14,14,0,0,0,3.23,0l.28-3,1.3,2.76a15.73,15.73,0,0,0,2.12-.68l-.67-2.54L127,191a16.6,16.6,0,0,0,1.6-.85l-1-3.11,2.69,2c.52-.38,1-.8,1.57-1.26l-1.13-1.59,1.74,1a36,36,0,0,0,5.22-6.21s-15.9,8-27.55,7.3A16.7,16.7,0,0,0,115.38,191.45Z" style="fill: rgb(69, 90, 100); transform-origin: 123.915px 186.732px 0px;" id="el21q80mj1k6y" class="animable"></path><path d="M139.65,194.26l2.42-1.44-1.83,2.44a12.63,12.63,0,0,0,1.5,1.88l2-1.13-1.38,1.74a8.08,8.08,0,0,0,.87.7l2.49-2.25-1.3,3a11.83,11.83,0,0,0,3.18,1.18l1.57-2-.44,2.22c.52.07,1,.11,1.52.13l.91-2.13,0,2.13a17.56,17.56,0,0,0,4.92-.78c-11.46-4.56-19-17.72-19-17.72C137.16,187.62,138.16,191.5,139.65,194.26Z" style="fill: rgb(69, 90, 100); transform-origin: 146.58px 191.48px 0px;" id="elc4vufl1sw7k" class="animable"></path><path d="M129.87,188.1a4.58,4.58,0,1,0,4.74-4.4A4.57,4.57,0,0,0,129.87,188.1Z" style="fill: rgb(255, 199, 39); transform-origin: 134.447px 188.277px 0px;" id="elicpoosr4e3" class="animable"></path><g id="el1yujwxiwj0s"><path d="M129.87,188.1a4.58,4.58,0,1,0,4.74-4.4A4.57,4.57,0,0,0,129.87,188.1Z" style="opacity: 0.4; transform-origin: 134.447px 188.277px 0px;" class="animable"></path></g><path d="M134,184.19a4.57,4.57,0,1,0,4.74-4.41A4.58,4.58,0,0,0,134,184.19Z" style="fill: rgb(255, 199, 39); transform-origin: 138.567px 184.347px 0px;" id="el32tm96bi21n" class="animable"></path><g id="elaqi5cuzpj2r"><path d="M134,184.19a4.57,4.57,0,1,0,4.74-4.41A4.58,4.58,0,0,0,134,184.19Z" style="opacity: 0.3; transform-origin: 138.567px 184.347px 0px;" class="animable"></path></g><path d="M129.43,183.2a4.57,4.57,0,1,0,4.74-4.41A4.58,4.58,0,0,0,129.43,183.2Z" style="fill: rgb(255, 199, 39); transform-origin: 133.997px 183.357px 0px;" id="elwfyoh3p8m7g" class="animable"></path><g id="elpd6xpmzui8h"><path d="M129.43,183.2a4.57,4.57,0,1,0,4.74-4.41A4.58,4.58,0,0,0,129.43,183.2Z" style="opacity: 0.2; transform-origin: 133.997px 183.357px 0px;" class="animable"></path></g></g><g id="freepik--character-2--inject-18" style="transform-origin: 584.466px 307.479px 0px;" class="animable"><path d="M581.25,217c-1.16,5.62-7.7,34.41-15.38,39.33-11.43,7.31-27.43,8.29-34.4,9.09-3,.35-7.27-20.22-4.11-21.07,6.76-1.82,24.55-4.81,26.65-6.06s11.7-15.8,17.78-24.61C577.67,205.17,584.19,202.75,581.25,217Z" style="fill: rgb(173, 99, 89); transform-origin: 554.113px 236.113px 0px;" id="ely37gkjhhn6" class="animable"></path><path d="M527.09,269.58c4.89-.32,14.66-4.9,16.59-6.9s-5.3-18.87-8.06-19.59-19.19,1.64-22.88,5S522,269.91,527.09,269.58Z" style="fill: rgb(173, 99, 89); transform-origin: 528.046px 256.272px 0px;" id="elmeapgdhcu9" class="animable"></path><path d="M519.47,244.05c2.31,1.2-.43,3.24-.43,3.24s4.65-2,6.55.17-1.56,4.43-1.8,4.6c.24-.11,4.56-1.82,6.25.55s-2.06,4.22-2.3,4.34c.26,0,3.75-.29,4.62,1.8,1.5,3.59-7.39,4.49-9.28,7,0,0,3.91,3.68,4,3.81s-8.45,1-11.71-1.7a2.71,2.71,0,0,1-.71-3.33s-2.69.64-4.08-1.18c-.71-.94.16-2.91.16-2.91a3.41,3.41,0,0,1-3.31-1.27c-.91-1.35.1-3.12.1-3.12s-2.27-.56-2.75-2.24C503.81,250.44,514.52,241.49,519.47,244.05Z" style="fill: rgb(173, 99, 89); transform-origin: 518.624px 256.696px 0px;" id="elabsujqmv8ev" class="animable"></path><path d="M507.66,255.77s-.09,0-.06-.05a24.22,24.22,0,0,1,11.58-8.56c.15,0,.29.17.14.26A49.37,49.37,0,0,0,507.66,255.77Z" style="fill: rgb(38, 50, 56); transform-origin: 513.489px 251.465px 0px;" id="ely8nsr11dlx" class="animable"></path><path d="M510.68,260.49s-.11,0-.07-.07a22.66,22.66,0,0,1,13.21-8.56c.19,0,.39.12.18.18C520.45,253,513.88,257.31,510.68,260.49Z" style="fill: rgb(38, 50, 56); transform-origin: 517.345px 256.175px 0px;" id="elap1wlcbt6ia" class="animable"></path><path d="M528.14,257c-5.15,1.21-9.4,3.95-13.36,7.38,0,.05-.11,0-.08-.08,1.48-2.21,4.23-4.14,6.5-5.46a14,14,0,0,1,6.9-2C528.2,256.82,528.25,257,528.14,257Z" style="fill: rgb(38, 50, 56); transform-origin: 521.449px 260.619px 0px;" id="el17dq3lvsmlk" class="animable"></path><path d="M519,247.29a15.73,15.73,0,0,1,2.84-.64,5.35,5.35,0,0,1,2.77.27,1.7,1.7,0,0,1,.89.88,2.46,2.46,0,0,1,.2,1.28,3.09,3.09,0,0,1-1.43,2.08l-1.77,1.19,2.08-.5a8.59,8.59,0,0,1,2.81-.23,3.13,3.13,0,0,1,2.31,1.09,1.8,1.8,0,0,1,0,2.25,5.38,5.38,0,0,1-2.19,1.59l-2.31,1,2.51-.19a7.73,7.73,0,0,1,2.09.1,3.38,3.38,0,0,1,1.77.81,1.62,1.62,0,0,1,.42,1.64,3.59,3.59,0,0,1-1.34,1.47,26.37,26.37,0,0,1-3.87,2.05c-.67.32-1.34.64-2,1a5.23,5.23,0,0,0-1.78,1.34,5.73,5.73,0,0,1,1.87-1.15c.67-.3,1.36-.57,2-.83a24.05,24.05,0,0,0,4.06-1.89,4.12,4.12,0,0,0,1.66-1.72,2.27,2.27,0,0,0-.52-2.44,4.19,4.19,0,0,0-2.18-1.07,9,9,0,0,0-2.32-.14l.19.81a6.17,6.17,0,0,0,2.6-1.86,2.59,2.59,0,0,0,.54-1.66,3,3,0,0,0-.61-1.62,3.94,3.94,0,0,0-2.91-1.39,9.52,9.52,0,0,0-3.1.31l.31.69a3.72,3.72,0,0,0,1.63-2.68,3.09,3.09,0,0,0-.32-1.56,2.28,2.28,0,0,0-1.19-1.08,5.48,5.48,0,0,0-3-.09A13,13,0,0,0,519,247.29Z" style="fill: rgb(38, 50, 56); transform-origin: 525.873px 256.001px 0px;" id="elzbe9axi57oh" class="animable"></path><path d="M532.75,243s-19.65-6.93-18.59,2.07c.31,2.68,4.79,13.3,6.94,12.44,2.78-1.11,1.73-5.89.6-8.79,0,0,6.35,3.3,10-.44A5.17,5.17,0,0,0,532.75,243Z" style="fill: rgb(173, 99, 89); transform-origin: 523.592px 249.006px 0px;" id="elmrmjm4wnxje" class="animable"></path><path d="M514.12,244.32a10.47,10.47,0,0,0,.46,3.14,23.37,23.37,0,0,0,1,3,37.16,37.16,0,0,0,2.9,5.69,5.93,5.93,0,0,0,1.09,1.29,2.2,2.2,0,0,0,.85.47,1.49,1.49,0,0,0,.53.06,1.42,1.42,0,0,0,.52-.12,2.68,2.68,0,0,0,1.36-1.27,5.1,5.1,0,0,0,.47-1.67,9.69,9.69,0,0,0-.29-3.28,23.23,23.23,0,0,0-1-3.06l-.52.46a13.1,13.1,0,0,0,2.29.83,11.54,11.54,0,0,0,2.4.38,8.06,8.06,0,0,0,2.4-.23,6.26,6.26,0,0,0,2.17-1,6.86,6.86,0,0,1-2.22.75,8.59,8.59,0,0,1-2.32,0,11.87,11.87,0,0,1-2.26-.5,12.4,12.4,0,0,1-2.11-.9l-.83-.46.31.91a22.92,22.92,0,0,1,.86,3,9.3,9.3,0,0,1,.23,3,2.61,2.61,0,0,1-1.27,2.22c-.64.32-1.42-.55-2-1.36a29.43,29.43,0,0,1-1.62-2.66c-.51-.91-1-1.84-1.46-2.78A20.16,20.16,0,0,1,514.12,244.32Z" style="fill: rgb(38, 50, 56); transform-origin: 522.435px 251.147px 0px;" id="el1yqqa2lix4" class="animable"></path><path d="M581.25,217c-1.16,5.62-7.7,34.41-15.38,39.33a47,47,0,0,1-11.41,5.12l25.07-54.65C581.73,206.65,582.79,209.54,581.25,217Z" style="fill: rgb(38, 50, 56); transform-origin: 568.219px 234.122px 0px;" id="elp6sawni8y3a" class="animable"></path><path d="M622.15,263.2H573.2c-.84-.64-3-42.89,3.48-56.23,1.6-3.33,8.79-5.41,12.78-3.47C609.26,213.08,622.49,262.61,622.15,263.2Z" style="fill: rgb(173, 99, 89); transform-origin: 597.164px 232.977px 0px;" id="elzxgerydl05a" class="animable"></path><path d="M580.54,214.22c2.29-.38,6.09-5.59,7.18-9.54.07-.27-.9-2.71-1.93-5.72-.62-1.84-1.27-3.89-1.73-5.81l-11.34,5.78a31.58,31.58,0,0,1,2.92,7.09,4.71,4.71,0,0,1,.1.81.62.62,0,0,0,0,.13C575.86,208.52,577,214.81,580.54,214.22Z" style="fill: rgb(173, 99, 89); transform-origin: 580.222px 203.704px 0px;" id="el55qp15t5ita" class="animable"></path><path d="M575.74,206.83s0,.08,0,.13a6.88,6.88,0,0,0,1.26-.23c6.8-1.78,6.5-10.51,6.23-13.16l-10.52,5.36a31.58,31.58,0,0,1,2.92,7.09A5.78,5.78,0,0,1,575.74,206.83Z" style="fill: rgb(38, 50, 56); transform-origin: 578.024px 200.265px 0px;" id="elo64l3kpzm9" class="animable"></path><path d="M584.69,179.23c1.57,4.3-.06,17.08-3,20.07-4.29,4.33-11.66,5.12-15.43-.12-3.65-5.08-1.24-21.69,2.1-24.44C573.26,170.69,582.36,172.86,584.69,179.23Z" style="fill: rgb(173, 99, 89); transform-origin: 574.867px 187.76px 0px;" id="el676d5v5cy62" class="animable"></path><path d="M573.27,186.53s.06.05.06.09c-.15.85-.17,1.86.57,2.25,0,0,0,0,0,0C573,188.65,573,187.32,573.27,186.53Z" style="fill: rgb(38, 50, 56); transform-origin: 573.506px 187.7px 0px;" id="elk4vh7dd1pyj" class="animable"></path><path d="M574.16,185.74c1.4.08,1.13,2.87-.16,2.79S573,185.67,574.16,185.74Z" style="fill: rgb(38, 50, 56); transform-origin: 574.124px 187.135px 0px;" id="elp3n5elzeqrb" class="animable"></path><path d="M568.18,185.87s-.07,0-.07.07c-.06.86-.27,1.84-1.08,2.06,0,0,0,.05,0,.05C568,188,568.27,186.7,568.18,185.87Z" style="fill: rgb(38, 50, 56); transform-origin: 567.613px 186.96px 0px;" id="ellrcnv77mxxd" class="animable"></path><path d="M567.49,184.89c-1.37-.24-1.75,2.54-.47,2.76S568.65,185.09,567.49,184.89Z" style="fill: rgb(38, 50, 56); transform-origin: 567.216px 186.269px 0px;" id="el1cr2amal7jk" class="animable"></path><path d="M575.38,184.57c-.37-.14-.69-.32-1-.49a1.85,1.85,0,0,1-1-.69.6.6,0,0,1,.16-.71,1.47,1.47,0,0,1,1.49,0,2.19,2.19,0,0,1,1.15,1.05A.64.64,0,0,1,575.38,184.57Z" style="fill: rgb(38, 50, 56); transform-origin: 574.775px 183.54px 0px;" id="ela2tbo6dxrsq" class="animable"></path><path d="M566.63,183.71a8.58,8.58,0,0,0,1.13-.18,1.84,1.84,0,0,0,1.13-.41.59.59,0,0,0,0-.72,1.47,1.47,0,0,0-1.43-.41,2.18,2.18,0,0,0-1.39.69A.63.63,0,0,0,566.63,183.71Z" style="fill: rgb(38, 50, 56); transform-origin: 567.468px 182.829px 0px;" id="elnoj6ut7oihe" class="animable"></path><path d="M573.3,194.62c-.22.18-.46.44-.77.44a2.15,2.15,0,0,1-.91-.31s-.06,0,0,0a1.16,1.16,0,0,0,1,.58.92.92,0,0,0,.75-.7S573.34,194.6,573.3,194.62Z" style="fill: rgb(38, 50, 56); transform-origin: 572.482px 194.972px 0px;" id="elivn92l3wgql" class="animable"></path><path d="M572.64,192a3,3,0,0,1-2.09,1.12,3.78,3.78,0,0,1-1.06,0l-.2,0-.18,0a.23.23,0,0,1-.16-.21h0a.29.29,0,0,1,0-.09h0v-.08c0-.66.2-1.67.2-1.67-.25.1-1.54.54-1.49.19a44.54,44.54,0,0,1,2-8.79c0-.09.17-.05.16,0-.32,2.76-1.13,5.45-1.49,8.23a4.92,4.92,0,0,1,1.42-.29c.1,0-.34,1.94-.34,2.24v0a4.09,4.09,0,0,0,3.14-.66C572.64,191.82,572.7,191.89,572.64,192Z" style="fill: rgb(38, 50, 56); transform-origin: 570.161px 187.787px 0px;" id="eljbjnxz63rwg" class="animable"></path><path d="M569.92,192.72a3.45,3.45,0,0,0,1.29,1.21,1.53,1.53,0,0,0,.95.15c.7-.11.78-.74.71-1.3a3.71,3.71,0,0,0-.23-.85A4.59,4.59,0,0,1,569.92,192.72Z" style="fill: rgb(38, 50, 56); transform-origin: 571.405px 193.015px 0px;" id="el2p4djoxf5ql" class="animable"></path><path d="M571.21,193.93a1.53,1.53,0,0,0,.95.15c.7-.11.78-.74.71-1.3A1.64,1.64,0,0,0,571.21,193.93Z" style="fill: rgb(255, 155, 188); transform-origin: 572.05px 193.439px 0px;" id="elg2ejo837dys" class="animable"></path><path d="M584.7,189.54s3.66-7.66,2.84-11.79c-.37-1.87-3.07-2.89-3.07-2.89a4.28,4.28,0,0,0-1.77-4.15c-2.44-1.88-7.8-.88-7.8-.88s-4-4.71-8.76-2.22-1,7.8-1,7.8-1.57,2.76,3.08,4.34,13.17-1.27,13.17-1.27a30.82,30.82,0,0,0,1,9.14A2.82,2.82,0,0,0,584.7,189.54Z" style="fill: rgb(38, 50, 56); transform-origin: 575.695px 178.212px 0px;" id="elpmq80offqmh" class="animable"></path><path d="M574.06,170a8.82,8.82,0,0,1,3.42-1,9.51,9.51,0,0,1,3.19.18,5.24,5.24,0,0,1,4.05,3.55,3.64,3.64,0,0,1-.42,2.81s-.07,0,0,0c1-1.53.19-3.67-1.12-4.75a7.92,7.92,0,0,0-5.42-1.41,15.46,15.46,0,0,0-3.61.75A.06.06,0,0,1,574.06,170Z" style="fill: rgb(38, 50, 56); transform-origin: 579.431px 172.24px 0px;" id="elb5zkfurqp6c" class="animable"></path><path d="M562.83,170.36a4.28,4.28,0,0,1,2.67-3,7.26,7.26,0,0,1,4.71-.3,9.1,9.1,0,0,1,4.12,2.47s0,.07,0,0a8,8,0,0,0-7.95-2.09,4.42,4.42,0,0,0-3,2.48,4.37,4.37,0,0,0,.48,3.67,8.22,8.22,0,0,0,3.5,2.88s0,.06,0,.05a8.52,8.52,0,0,1-3.45-2.4A4.77,4.77,0,0,1,562.83,170.36Z" style="fill: rgb(38, 50, 56); transform-origin: 568.556px 171.662px 0px;" id="elrpfnz3z43lp" class="animable"></path><path d="M567.2,180.09a14.92,14.92,0,0,0,6.34.46A30.78,30.78,0,0,0,580,179c1.22-.43,2.43-.9,3.62-1.39,0,0,.06,0,0,.06a34.1,34.1,0,0,1-6.51,2.73,16.7,16.7,0,0,1-6.48.58,13.93,13.93,0,0,1-3.49-.86S567.17,180.08,567.2,180.09Z" style="fill: rgb(38, 50, 56); transform-origin: 575.393px 179.343px 0px;" id="elpwi6nngdvo8" class="animable"></path><path d="M582.54,189.68s2.73-4.19,4.62-3.23-.06,7-2.21,7.85a2.22,2.22,0,0,1-3-1.09Z" style="fill: rgb(173, 99, 89); transform-origin: 584.937px 190.416px 0px;" id="el1p644uqtxg5" class="animable"></path><path d="M586.56,188.16s0,0,0,.05a5.65,5.65,0,0,0-2.78,3.61,1.23,1.23,0,0,1,1.82-.4.05.05,0,0,1,0,.09,1.35,1.35,0,0,0-1.48.52,6.81,6.81,0,0,0-.68,1.24c-.07.14-.32.08-.27-.08v0C583.05,191.2,584.47,188.42,586.56,188.16Z" style="fill: rgb(38, 50, 56); transform-origin: 584.861px 190.754px 0px;" id="el9looluuecju" class="animable"></path><path d="M581.63,255.11a2.09,2.09,0,0,1,1.55,1,2.38,2.38,0,0,1,.36.91,2.56,2.56,0,0,1,0,1,1,1,0,0,1-.73.83.84.84,0,0,1-.6-.08.87.87,0,0,1-.36-.45,1.72,1.72,0,0,1,.36-1.81,1.84,1.84,0,0,0,0,1.65.46.46,0,0,0,.87-.23,3.11,3.11,0,0,0-.28-1.61A2.52,2.52,0,0,0,581.63,255.11Z" style="fill: rgb(38, 50, 56); transform-origin: 582.61px 256.992px 0px;" id="el2l47923lj8x" class="animable"></path><g id="el3wgowciyaxl"><path d="M575.72,226.6c.17.93-.15,1.76-.69,1.86s-1.13-.58-1.29-1.51.15-1.76.7-1.86S575.56,225.67,575.72,226.6Z" style="opacity: 0.1; transform-origin: 574.732px 226.775px 0px;" class="animable"></path></g><g id="elanc1fhl8beb"><path d="M589.71,224.53a1.54,1.54,0,0,1-1,1.9c-.71.13-1.41-.53-1.58-1.45a1.55,1.55,0,0,1,1-1.91C588.84,223,589.55,223.6,589.71,224.53Z" style="opacity: 0.1; transform-origin: 588.42px 224.755px 0px;" class="animable"></path></g><path d="M595.14,222.14c-1.79,5.85-12.53,36.73-20.73,42-12.19,7.8-29.28,8.85-36.71,9.71-3.24.37-7.76-21.59-4.39-22.5,7.21-1.94,26.21-5.13,28.45-6.46s14.73-19.21,21.72-28.24C592.84,204.52,599.47,207.93,595.14,222.14Z" style="fill: rgb(173, 99, 89); transform-origin: 564.307px 241.547px 0px;" id="el4ruvgwdyxh" class="animable"></path><path d="M510.76,253.46a3.7,3.7,0,0,0,1.61,3.9,5.47,5.47,0,0,0-1.67,3.33c-.16,2.25,3.3,3.49,3.3,3.49a6.76,6.76,0,0,0-1.2,3.79c.07,2.17,3.38,3.92,3.38,3.92a5.94,5.94,0,0,0,1.05,4c2.31,3,8.09,2.48,11.77,2.17s13.84-4.63,15.86-5.25l-1.77-23.65s-16.91-3.32-21.18-2.34C518.3,247.64,511.49,250.67,510.76,253.46Z" style="fill: rgb(173, 99, 89); transform-origin: 527.767px 262.471px 0px;" id="elc5k9wv2affj" class="animable"></path><path d="M512.41,257.24c3.62-1.79,7.57-2.42,11.48-3.27a.07.07,0,0,1,0,.14c-3.9.8-7.59,2.36-11.45,3.31A.1.1,0,0,1,512.41,257.24Z" style="fill: rgb(38, 50, 56); transform-origin: 518.163px 255.695px 0px;" id="elrgzzhljwg89" class="animable"></path><path d="M514.05,264a10.26,10.26,0,0,1,2.68-.63c1-.16,1.93-.3,2.9-.43q2.91-.39,5.83-.62c.09,0,.12.12,0,.13-1.93.26-3.86.55-5.78.89-1,.17-1.91.34-2.87.53a12.66,12.66,0,0,1-2.73.39A.14.14,0,0,1,514.05,264Z" style="fill: rgb(38, 50, 56); transform-origin: 519.757px 263.29px 0px;" id="elb3l7wtgvt8w" class="animable"></path><path d="M516.26,271.88a7.49,7.49,0,0,1,2.45-.45l2.65-.31c1.77-.21,3.54-.43,5.3-.7.08,0,.11.12,0,.13-1.78.29-3.56.61-5.35.88l-2.64.39a6.6,6.6,0,0,1-2.42.14A0,0,0,0,1,516.26,271.88Z" style="fill: rgb(38, 50, 56); transform-origin: 521.491px 271.217px 0px;" id="elubcynb084r" class="animable"></path><path d="M583.7,216.64s0-.06,0,0c-.72.83-1.45,1.66-2.16,2.5l.24-.49c.2-.41.4-.82.61-1.22,0,0,0-.07-.05,0a11.91,11.91,0,0,0-.69,1.14c-.1.21-.2.41-.29.62s-.1.21-.14.31a1.17,1.17,0,0,1,0,.11c-4,4.81-8.17,10.87-9.13,12.16-.07.09-.07.46,0,.38C573.89,230.29,582.09,218.41,583.7,216.64Z" style="fill: rgb(38, 50, 56); transform-origin: 577.869px 224.387px 0px;" id="elo6x7beyzj0a" class="animable"></path><path d="M595.77,219.29s.06,0,.05,0c-.18,1.09-.35,2.17-.54,3.26.07-.17.15-.33.22-.49.19-.42.37-.84.54-1.25,0,0,.08,0,.07,0a12.59,12.59,0,0,1-.44,1.26c-.09.21-.18.42-.29.62l-.15.31-.05.1c-1.84,5.91-11.31,30.56-16.48,37.24a21.31,21.31,0,0,1-4.57,4c0,.1-.19,0-.14-.09.23-.53,2-1.32,4.39-4.54C582.43,254.39,594.11,226.75,595.77,219.29Z" style="fill: rgb(38, 50, 56); transform-origin: 585.046px 241.836px 0px;" id="el6z384f0d6x2" class="animable"></path><path d="M514,264.18a8.48,8.48,0,0,1-2-1,3.2,3.2,0,0,1-1.39-1.77,4,4,0,0,1,.36-2.26,8,8,0,0,1,1.21-1.95l0,.37a4.66,4.66,0,0,1-1.63-2,3.27,3.27,0,0,1,0-2.62,9,9,0,0,1,3.64-3.48,36.74,36.74,0,0,1,4.47-2.16,20.69,20.69,0,0,1,2.37-.82,9.17,9.17,0,0,1,2.54-.28,71.35,71.35,0,0,1,9.82.83c3.25.47,6.47,1.05,9.68,1.69H543c3.77-.73,7.56-1.38,11.33-2.15,1.88-.4,3.77-.76,5.62-1.23.47-.11.93-.25,1.37-.4a3.79,3.79,0,0,0,1.09-.86c.68-.68,1.35-1.37,2-2.07-.6.74-1.22,1.49-1.87,2.2a3.8,3.8,0,0,1-1.12,1c-.45.18-.91.34-1.37.48-1.85.57-3.72,1-5.6,1.47-3.75.87-7.51,1.72-11.29,2.45H543c-3.21-.61-6.43-1.15-9.65-1.58a85.92,85.92,0,0,0-9.69-.88,8.47,8.47,0,0,0-2.32.24,19.44,19.44,0,0,0-2.27.75,46,46,0,0,0-4.39,2,8.42,8.42,0,0,0-3.46,3.07,2.66,2.66,0,0,0-.1,2.14,4.32,4.32,0,0,0,1.37,1.8l.23.17-.18.19a7.79,7.79,0,0,0-1.23,1.77,3.74,3.74,0,0,0-.44,2,3,3,0,0,0,1.22,1.71A8.44,8.44,0,0,0,514,264.18Z" style="fill: rgb(38, 50, 56); transform-origin: 537.343px 253.1px 0px;" id="elbwz1emlb8b" class="animable"></path><path d="M529.44,437.12c1.87.59,55.14-.22,57.15-1.53.77-.5,1.1-8.26,1.24-17.66,0-2-10.6-34.74-10.6-34.74l-35.09.44,11.34,34.73s-20.26,9.43-22.31,11.11S527.56,436.53,529.44,437.12Z" style="fill: rgb(173, 99, 89); transform-origin: 558.213px 410.253px 0px;" id="elngw4w9gm5qf" class="animable"></path><path d="M608.56,265.59S571.24,343,570.22,348c-1.56,7.62,14.18,61.74,14.18,61.74l-33.81,0s-18.88-51.84-15.86-67.05c2.82-14.24,39.07-77.1,39.07-77.1Z" style="fill: rgb(173, 99, 89); transform-origin: 571.481px 337.665px 0px;" id="elfft9iv1f6hb" class="animable"></path><path d="M537.26,330.79c.63.22,37,15.49,37,15.49l34.34-80.69H573.8Z" style="fill: rgb(255, 199, 39); transform-origin: 572.93px 305.935px 0px;" id="el8su4kxpsun" class="animable"></path><g id="ely7fi7vvc24l"><polygon points="608.56 265.59 580.76 330.91 586.21 265.61 608.56 265.59" style="opacity: 0.1; transform-origin: 594.66px 298.25px 0px;" class="animable"></polygon></g><path d="M611.61,448.15c1.95-.24,51.28-23.8,52.58-25.83a.75.75,0,0,0,0-.38c-.11-1.74-4-7.61-7.4-15.42-.21-.5-1.66-2.79-3.67-5.88-5.51-8.47-17.43-23.67-17.43-23.67L606.12,392.6l16.82,22.93,2.81,5.58s-14.54,17-15.72,19.35S609.67,448.38,611.61,448.15Z" style="fill: rgb(173, 99, 89); transform-origin: 635.167px 412.563px 0px;" id="elgpb603us5fg" class="animable"></path><path d="M621.18,413.13l30.7-14.43s-32.08-45.38-32.48-50.4c-.56-7,4.76-35.83,7.4-47.16a52.06,52.06,0,0,0-4.29-35.55H573.8s3.11,24.19,10.32,30.81a29.86,29.86,0,0,0,5.46,3.17s-7,41.28-5.85,55.05C585.06,370.32,621.18,413.13,621.18,413.13Z" style="fill: rgb(173, 99, 89); transform-origin: 612.84px 339.36px 0px;" id="elik1ujg0n6q" class="animable"></path><path d="M626.8,301.14c-2.4,10.28-3,32.12-3.44,41.83l-41.93,2.93c1-16.79,6.37-47.32,6.37-47.32a13.57,13.57,0,0,1-3.68-2.18c-7.21-6.62-10.31-30.81-10.31-30.81h48.7A52.05,52.05,0,0,1,626.8,301.14Z" style="fill: rgb(255, 199, 39); transform-origin: 600.997px 305.745px 0px;" id="elsvd946sql3r" class="animable"></path><path d="M581.79,295.54a74.42,74.42,0,0,1,11.69,5.38c.14.08,0,.31-.11.24-3.94-1.67-8-3.26-11.79-5.15A.26.26,0,0,1,581.79,295.54Z" style="fill: rgb(38, 50, 56); transform-origin: 587.499px 298.352px 0px;" id="eli7c13wknusj" class="animable"></path><path d="M580.42,268.58c0-.13.25-.16.24,0,0,4.67.31,8.77.72,13.13.19,2,1.87,13.2,5.38,12.37.59-.14.88-.72,1-1.6a13.91,13.91,0,0,0-.48-3.43c-.4-2.34-.72-4.69-.93-7.06a63.59,63.59,0,0,1,.08-13.23.11.11,0,0,1,.22,0A121.26,121.26,0,0,0,587.78,287c.45,2.9,1.93,7.28-1.11,7.74s-5.13-6.86-5.52-8.86A67,67,0,0,1,580.42,268.58Z" style="fill: rgb(38, 50, 56); transform-origin: 584.351px 281.616px 0px;" id="elh6h0vm38ofr" class="animable"></path><path d="M586.67,294.36a18.68,18.68,0,0,1,.8,2.32,5.21,5.21,0,0,1,.33,1.9c0,.13-.17.14-.24.06a6.89,6.89,0,0,1-.82-1.86c-.27-.71-.56-1.42-.81-2.15A.39.39,0,0,1,586.67,294.36Z" style="fill: rgb(38, 50, 56); transform-origin: 586.853px 296.396px 0px;" id="elwgtrzioj6j" class="animable"></path><path d="M622.34,321.53c0-2.6,0-1.78-.07-4.38s0-5.12-.13-7.67c0-.29,0-.54-.35-.67a6.26,6.26,0,0,0-1.84-.1c-1.52,0-3,0-4.57,0-3.15,0-6.69.14-9.82.49-.29,0-.28.46,0,.43a123.1,123.1,0,0,1,15-.42c.27,0,.88,0,1.07.18a2.61,2.61,0,0,1,0,.56l0,1.71c0,1.14,0,2.27,0,3.41,0,2.27,0,1.12,0,3.39,0,1,0,2.08,0,3.12,0,.57,0,1.14,0,1.71a8,8,0,0,1,0,.85,1.15,1.15,0,0,1-.68,1.15c-.89.54-1.93.93-2.87,1.38L615,328.17a7.43,7.43,0,0,1-1.72.79c-.64.11-1.38-.57-1.87-.88l-4.52-2.84a5.43,5.43,0,0,1-1.23-1.11c-.36-.47-.45-12.33-.09-14.82,0-.11-.28-.14-.29,0a145.52,145.52,0,0,0-.49,14.78c.17,1,1,1.38,1.86,1.89l3.4,2.11,1.76,1.1a2.2,2.2,0,0,0,1.35.46,4.36,4.36,0,0,0,1.25-.5l1.86-.91,3.6-1.74c.79-.39,2.1-.75,2.4-1.64a4.11,4.11,0,0,0,.07-1.31Z" style="fill: rgb(38, 50, 56); transform-origin: 613.565px 319.166px 0px;" id="el86t9nuckjlu" class="animable"></path><path d="M621.55,310.26c-2.5,1.58-5,3.12-7.63,4.55-.34.18-.67.37-1,.54a1.25,1.25,0,0,1-1.56-.14c-.58-.39-1.14-.79-1.71-1.18l-4-2.63c-.1-.06-.23.06-.13.13,1.4,1.08,2.79,2.16,4.21,3.21,1,.71,2,1.8,3.25,1.15a48,48,0,0,0,4.26-2.55c1.5-.94,3-1.94,4.36-3A.05.05,0,0,0,621.55,310.26Z" style="fill: rgb(38, 50, 56); transform-origin: 613.548px 313.174px 0px;" id="elgh2gw305dhj" class="animable"></path><path d="M612.86,313.89a.73.73,0,0,0-.4-.51.84.84,0,0,0-.76.16.09.09,0,0,0,.1.15.58.58,0,0,1,.3-.13.32.32,0,0,1,.14,0s.07,0,.07.05a.47.47,0,0,1,.09.12l0,.06s0,0,0,0a1.86,1.86,0,0,1,.1.31.48.48,0,0,1-.24.46.26.26,0,0,1-.3,0,.6.6,0,0,1-.17-.3,0,0,0,0,0-.06,0,.54.54,0,0,0,.32.48.6.6,0,0,0,.61-.22A.73.73,0,0,0,612.86,313.89Z" style="fill: rgb(38, 50, 56); transform-origin: 612.265px 314.052px 0px;" id="ellvrznva3kw" class="animable"></path><path d="M616.52,284c-1.1-.28-2.27-.37-3.38-.55-.9-.14-1.8-.3-2.69-.5a11.79,11.79,0,0,1-4.74-2,11.35,11.35,0,0,1-3.08-4.78c-.44-1-.9-2.08-1.36-3.11-.23-.5-.45-1-.69-1.49a18.31,18.31,0,0,1-.84-1.8c0-.09-.17,0-.13,0a11.82,11.82,0,0,1,.37,1.29c.16.51.3,1,.45,1.51.28.89.55,1.79.85,2.68a21.53,21.53,0,0,0,1.9,4.7c1.65,2.62,4.59,3.68,7.54,4,.84.11,1.7.17,2.54.22a18.24,18.24,0,0,0,3.22,0C616.64,284.31,616.69,284.08,616.52,284Z" style="fill: rgb(38, 50, 56); transform-origin: 608.115px 276.986px 0px;" id="el6mf9yxq625" class="animable"></path><polygon points="622.75 263.2 573.2 263.2 573.66 265.59 622.51 265.59 622.75 263.2" style="fill: rgb(255, 199, 39); transform-origin: 597.975px 264.395px 0px;" id="el80bfg29mo" class="animable"></polygon><g id="el9mcxwr0wxf8"><polygon points="622.75 263.2 573.2 263.2 573.66 265.59 622.51 265.59 622.75 263.2" style="opacity: 0.1; transform-origin: 597.975px 264.395px 0px;" class="animable"></polygon></g><path d="M568.25,270.68c1,2.38,4,2.08,5.88,1.1a20.64,20.64,0,0,0,7.75-7.35.11.11,0,0,0-.06-.16c0-.29-.14-.65-.49-.6-3.38.46-7,.53-10.18,2C569.32,266.55,567.28,268.44,568.25,270.68Zm8.1-5.27c1.66-.26,3.32-.45,5-.77a59.17,59.17,0,0,1-4.62,4.19,22.48,22.48,0,0,1-2.49,1.72c-1.35.77-6.28,1.95-4.69-2C570.39,266.3,574.38,265.73,576.35,265.41Z" style="fill: rgb(255, 255, 255); transform-origin: 574.948px 268.087px 0px;" id="el1xvtno684u7" class="animable"></path><path d="M591.26,267.56c-2.82-2-6.41-2.75-9.65-3.81a.48.48,0,0,0-.59.5c-.06,0-.12.07-.09.14a20.67,20.67,0,0,0,6.3,8.64c1.67,1.29,4.54,2.13,6,0S592.91,268.74,591.26,267.56Zm1.1,3.08c.85,4.21-3.79,2.16-5,1.16a22.75,22.75,0,0,1-2.14-2.14,60.73,60.73,0,0,1-3.79-5c1.56.62,3.16,1.1,4.74,1.66C588.07,267,591.9,268.31,592.36,270.64Z" style="fill: rgb(255, 255, 255); transform-origin: 587.346px 269.034px 0px;" id="elws7gay3t519" class="animable"></path></g><g id="freepik--character-1--inject-18" style="transform-origin: 186.514px 262.207px 0px;" class="animable"><path d="M202.82,168.12c3.74,8.13,6.86,18.52,14.11,24.31,5.69,4.52,13.29,5.62,20.35,5.21,15.54-.93,33.61-9.34,36-26.46.94-6.84-3.84-17.6-11.68-18.39-4-.4-7.84,1-11.72,1.83A16.36,16.36,0,0,1,236,151.77c-8.26-6.05-10.53-12.43-15.85-20.84a7,7,0,0,0-4.54-3.52,12.62,12.62,0,0,0-6.72-.21,12.63,12.63,0,0,0-5.81,1.88c-3.69,2.42-5.58,8-7.45,11.76s-2.06,6.94-.32,10.9C197.73,157.23,200.32,162.66,202.82,168.12Z" style="fill: rgb(38, 50, 56); transform-origin: 233.753px 162.281px 0px;" id="elcmpagm1jmyl" class="animable"></path><path d="M203.77,172.37c-3-7.67-5.74-15.39-8.59-23.1,0-.05,0-.08.07,0,2.53,6.27,5.14,12.5,7.59,18.81s4.43,12.71,7.36,18.66c6.58,13.36,23,11.72,33.88,5.27.5-.29.91.53.4.81-9.77,5.37-23.32,8.08-31.86-1.13C208,186.62,206.18,178.64,203.77,172.37Z" style="fill: rgb(38, 50, 56); transform-origin: 219.947px 173.479px 0px;" id="el760si60z0nu" class="animable"></path><path d="M219.14,130.56c-.07-.14.14-.24.22-.11,4.09,7.11,8.19,15.77,15.6,20A20.77,20.77,0,0,0,247,153c3.31-.3,6.26-1.69,9.4-2.61,12.31-3.57,20.2,11.46,15.12,21.53-.11.21-.48,0-.38-.18,3.36-7.5,1-16.75-6.82-20.42-6.25-3-12.63,2.31-19.09,2.3C231.83,153.66,224.37,141.24,219.14,130.56Z" style="fill: rgb(38, 50, 56); transform-origin: 246.105px 151.199px 0px;" id="elwako5y1jb3c" class="animable"></path><path d="M224.74,172.53c5.72.46,28-1.17,35.37-6.51,11-7.94,19.6-18.86,22.93-25.05,1.45-2.7-18-13.28-20-10.65-4.19,5.62-13.44,17.46-15.38,19s-14,8.8-24.25,11.77C209.62,165,210.84,171.39,224.74,172.53Z" style="fill: rgb(235, 148, 129); transform-origin: 248.393px 151.254px 0px;" id="el13uvtbxn9thc" class="animable"></path><path d="M285.46,131.26c-.23,1.5.55,1.63,2.52-.19s8.25-10.74,11.17-8.29-6.1,14.89-9.62,17.68a71.48,71.48,0,0,1-10.2,6.07C280.6,143.75,283,136.73,285.46,131.26Z" style="fill: rgb(235, 148, 129); transform-origin: 289.526px 134.444px 0px;" id="el7nc1a8jeta2" class="animable"></path><path d="M260.06,135c3.86-7.68,8.21-17.48,16.36-22.73a4.81,4.81,0,0,1,3-.82c3.61-2.42,5.84-1.44,5.84-1.44,4.05-1.23,6.19.09,6.19.09s4.27-2.8,6.39-.5c2.39,2.58-4.08,6-6.49,10-5.51,9.3-10.74,24-12.06,26.89Z" style="fill: rgb(235, 148, 129); transform-origin: 279.211px 127.592px 0px;" id="elg7r0qyx2qj7" class="animable"></path><path d="M278.78,125.32a69.16,69.16,0,0,1,5.28-7.86,69.59,69.59,0,0,1,7.42-7.25.09.09,0,0,0-.1-.14,36.76,36.76,0,0,0-12.73,15.18C278.59,125.39,278.69,125.46,278.78,125.32Z" style="fill: rgb(38, 50, 56); transform-origin: 285.065px 117.731px 0px;" id="eldhq94e49tsi" class="animable"></path><path d="M272.68,122.81c1.78-2.53,4.93-7,12.68-12.73,0,0,0-.07,0,0a32.89,32.89,0,0,0-12.77,12.7C272.46,122.9,272.56,123,272.68,122.81Z" style="fill: rgb(38, 50, 56); transform-origin: 278.944px 116.482px 0px;" id="elcqks5fdm985" class="animable"></path><path d="M269.43,121.4a51.82,51.82,0,0,1,10-9.93s0-.07,0,0c-5.29,3.45-6.82,5.3-10.15,9.89C269.16,121.47,269.31,121.57,269.43,121.4Z" style="fill: rgb(38, 50, 56); transform-origin: 274.333px 116.465px 0px;" id="eln7ghux03nmd" class="animable"></path><path d="M225.67,200.44l-1.27,12.2-40.9-12.16s6.88-23.12,18.86-35.32c6-6.1,12.78-5.41,17-.88,1.06,1.15,9.18,19.45,10.35,26.09C230.69,196.24,225.67,200.44,225.67,200.44Z" style="fill: rgb(235, 148, 129); transform-origin: 206.668px 186.687px 0px;" id="elyw55qe9n70j" class="animable"></path><path d="M203,174.06c-13.61,6.14-37,10.13-42.78,8.09-6.74-2.37-14.47-30.28-16.82-46-.48-3.24,24.59.12,25,2.39,1.73,9.18,4.33,23,5.34,23.73s19.18,1.05,27.72.56C210.61,162.28,213.09,169.51,203,174.06Z" style="fill: rgb(235, 148, 129); transform-origin: 176.458px 158.748px 0px;" id="el14zley78gvw" class="animable"></path><path d="M143.56,136.66c-.65-3-2.57-17.34-2.19-21.38s2.33-15.62,5.46-15.64,2.83,3.41,2.83,3.41,1.59-4.75,4.74-4.49,2.52,5.59,2.52,5.59,2-4.76,5.11-4.27,1.59,5.73,1.59,5.73,1.62-4.44,4-3c2.89,1.78-1,9.63-1.1,14.13,0,1,1.08,20.74,1.08,20.74Z" style="fill: rgb(235, 148, 129); transform-origin: 155.003px 118.015px 0px;" id="el13m9b7dldfk" class="animable"></path><path d="M163.74,105.16c-2.86,5.77-3.11,8.8-2.46,15.11,0,.12-.17.17-.19,0-1.2-6.12-1.43-10,2.38-15.31C163.66,104.74,163.88,104.88,163.74,105.16Z" style="fill: rgb(38, 50, 56); transform-origin: 162.047px 112.616px 0px;" id="elhz6s41ypqxp" class="animable"></path><path d="M157.15,103.69c-2.45,6.27-2.75,9.54-2.55,16.2,0,.1-.16.11-.17,0-.74-6.52-.88-10.36,2.39-16.29C157,103.35,157.26,103.41,157.15,103.69Z" style="fill: rgb(38, 50, 56); transform-origin: 155.585px 111.706px 0px;" id="elh6ai7metcj" class="animable"></path><path d="M149.68,103.39c-1.93,6.23-2.42,9.81-1.4,16.25a.12.12,0,1,1-.23,0c-1.68-6.46-1.11-10.93,1.43-16.34C149.66,103,149.8,103,149.68,103.39Z" style="fill: rgb(38, 50, 56); transform-origin: 148.409px 111.44px 0px;" id="elgtzams0o8vc" class="animable"></path><path d="M168.11,141.55s4.86-6.45,6.37-9.76,2.61-17.69-.49-18.11c-4-.53-6.26,7.65-6.85,11.81,0,0-9.24-1.25-12.14,4.27S168.11,141.55,168.11,141.55Z" style="fill: rgb(235, 148, 129); transform-origin: 165.31px 127.603px 0px;" id="el6ri8jwyyhm" class="animable"></path><path d="M172.85,113.9c-4,2.14-4.42,7.64-5.29,11.63a.38.38,0,0,1-.56.26c-3.9-.26-9.49.5-12.08,3.73a.09.09,0,1,1-.15-.1c2.3-3.84,7.73-5,12-4.48.83-4.11,1.49-9.6,6.07-11.08C172.85,113.85,172.87,113.88,172.85,113.9Z" style="fill: rgb(38, 50, 56); transform-origin: 163.807px 121.709px 0px;" id="elkj88htt4to" class="animable"></path><path d="M206.48,172.6s.06,0,0,0l-2.88,1.51.54-.11,1.34-.3s.08,0,0,.06a12.9,12.9,0,0,1-1.29.39l-.68.14-.34,0-.12,0c-.26.13-6.93,3-9.69,3.52-.11,0-.24-.14-.14-.18C195.15,177.1,205,173.2,206.48,172.6Z" style="fill: rgb(38, 50, 56); transform-origin: 199.845px 175.205px 0px;" id="elfwqkqw4ome8" class="animable"></path><path d="M225.8,202.27s-35.4-7.67-39.45-9.45l.76-2.33,11.41.1s3.74-8.86,11.76-11.65c0,0,7.29,3.88,8.06,16.63,0,0,5-12,9-12.94,0,0,6.6,11.86-1.61,18Z" style="fill: rgb(255, 199, 39); transform-origin: 208.099px 190.605px 0px;" id="eljtu6szbyg1j" class="animable"></path><path d="M210.29,181.75c-.28-3.59-.41-7.16-.73-10.69a40.28,40.28,0,0,0-.8-5.23,16.14,16.14,0,0,0-.63-2.53,1.8,1.8,0,0,0-.73-.93,2.42,2.42,0,0,0-1.27-.14,2.16,2.16,0,0,1,1.38-.14,2,2,0,0,1,1.11.95,11.93,11.93,0,0,1,1,2.58,25.66,25.66,0,0,1,.95,5.35,48.69,48.69,0,0,1,.14,5.4A51,51,0,0,1,210.29,181.75Z" style="fill: rgb(255, 199, 39); transform-origin: 208.431px 171.893px 0px;" id="eleq7d13u6xoc" class="animable"></path><path d="M227.35,182.63c-1.5-3-2.77-6.1-4-9.19l-1.89-4.63a38.61,38.61,0,0,0-2.09-4.53,17.89,17.89,0,0,1,2.8,4.2c.79,1.5,1.46,3,2.1,4.59A65.1,65.1,0,0,1,227.35,182.63Z" style="fill: rgb(255, 199, 39); transform-origin: 223.36px 173.455px 0px;" id="elpcnmv6gqc7" class="animable"></path><path d="M209,163.54c.36.81,5.38,5.5,9.17,4.6,1.24-.29-.06-7.11-.06-7.11l0-.53.26-7.35-9.29-3.78-1.33-.48s.06,2,.16,4.53c0,.12,0,.24,0,.36s0,.28,0,.41c0,.37,0,.76,0,1.14s0,.57.05.88l.06.9A49.23,49.23,0,0,0,209,163.54Z" style="fill: rgb(235, 148, 129); transform-origin: 213.228px 158.572px 0px;" id="elqydyj9af07" class="animable"></path><path d="M207.94,153.42a14.74,14.74,0,0,0,10.2,7.08l.26-7.35-9.29-3.78-1.33-.48S207.84,150.91,207.94,153.42Z" style="fill: rgb(38, 50, 56); transform-origin: 213.09px 154.695px 0px;" id="el084crfbtk0pw" class="animable"></path><path d="M225.36,139c4.85,12-1.77,16.23-4.36,17.28-2.34.94-10.45,3.87-16.51-7.54s-2-17.45,3.23-19.9S220.52,127,225.36,139Z" style="fill: rgb(235, 148, 129); transform-origin: 214.276px 142.501px 0px;" id="elt11oohy0ug" class="animable"></path><path d="M222.23,136a8.85,8.85,0,0,1-.87.16,1.55,1.55,0,0,1-.93,0,.46.46,0,0,1-.21-.52,1.12,1.12,0,0,1,.94-.67,1.67,1.67,0,0,1,1.2.15A.49.49,0,0,1,222.23,136Z" style="fill: rgb(38, 50, 56); transform-origin: 221.392px 135.576px 0px;" id="elr0mlmaz0ybn" class="animable"></path><path d="M214.56,140a6.39,6.39,0,0,0,.87-.18,1.41,1.41,0,0,0,.86-.35.47.47,0,0,0,0-.56,1.13,1.13,0,0,0-1.12-.27,1.61,1.61,0,0,0-1,.58A.49.49,0,0,0,214.56,140Z" style="fill: rgb(38, 50, 56); transform-origin: 215.229px 139.295px 0px;" id="elf78yu34rhhp" class="animable"></path><path d="M219.67,148.16a1.35,1.35,0,0,0,.86.26,2.3,2.3,0,0,0,.83-.51,0,0,0,0,1,0,0,1.21,1.21,0,0,1-.9.81,1,1,0,0,1-.91-.52S219.63,148.15,219.67,148.16Z" style="fill: rgb(38, 50, 56); transform-origin: 220.455px 148.315px 0px;" id="el6sxjjaywexb" class="animable"></path><path d="M221.9,143.84s.66,1.16.89,1.73c0,.06-.11.14-.3.23h0a3,3,0,0,1-3.07,0c-.06,0,0-.13.06-.11a4.42,4.42,0,0,0,2.78-.29c0-.18-1.19-1.93-1.1-2a5.41,5.41,0,0,1,1.42-.23c-1.3-2.44-3-4.65-4.24-7.09,0-.09.08-.17.14-.1a44.9,44.9,0,0,1,4.89,7.45C223.53,143.81,222.17,143.85,221.9,143.84Z" style="fill: rgb(38, 50, 56); transform-origin: 220.861px 141.088px 0px;" id="el8mgx4bu5n3l" class="animable"></path><path d="M222.32,145.41a3.6,3.6,0,0,1-.74,1.66,1.61,1.61,0,0,1-.84.51c-.71.17-1-.39-1.18-1a4,4,0,0,1-.12-.9A4.63,4.63,0,0,0,222.32,145.41Z" style="fill: rgb(38, 50, 56); transform-origin: 220.88px 146.51px 0px;" id="elzea1tg2uu7m" class="animable"></path><path d="M221.58,147.07a1.61,1.61,0,0,1-.84.51c-.71.17-1-.39-1.18-1A1.67,1.67,0,0,1,221.58,147.07Z" style="fill: rgb(255, 155, 188); transform-origin: 220.57px 147.018px 0px;" id="el8680t9f6jhj" class="animable"></path><path d="M217.23,141.56s0,.06,0,.09c.38.77.69,1.72.1,2.3,0,0,0,.06,0,0C218.14,143.48,217.71,142.22,217.23,141.56Z" style="fill: rgb(38, 50, 56); transform-origin: 217.507px 142.768px 0px;" id="elw8ketum8yoa" class="animable"></path><path d="M216.15,141.06c-1.3.48-.24,3.05,1,2.6S217.24,140.66,216.15,141.06Z" style="fill: rgb(38, 50, 56); transform-origin: 216.621px 142.365px 0px;" id="el3dorhz2fudn" class="animable"></path><path d="M215.71,141.4c-.17.24-.28.59-.54.73s-.65,0-1-.19c0,0,0,0,0,.05.2.49.59.92,1.15.77s.67-.7.59-1.25C215.91,141.41,215.77,141.31,215.71,141.4Z" style="fill: rgb(38, 50, 56); transform-origin: 215.052px 142.078px 0px;" id="el6181fs5dwk" class="animable"></path><path d="M221.79,139.52s.08,0,.09,0c.3.81.78,1.68,1.6,1.66,0,0,0,0,0,0C222.56,141.5,222,140.34,221.79,139.52Z" style="fill: rgb(38, 50, 56); transform-origin: 222.635px 140.377px 0px;" id="el7dgj3r3l085" class="animable"></path><path d="M222.17,138.4c1.24-.61,2.38,1.92,1.23,2.49S221.13,138.92,222.17,138.4Z" style="fill: rgb(38, 50, 56); transform-origin: 222.817px 139.639px 0px;" id="elkegghyzyx0m" class="animable"></path><path d="M222.77,138.33c.26,0,.57.2.82.11s.36-.47.42-.81c0,0,0,0,.05,0,.23.47.3,1.05-.12,1.35s-.89,0-1.22-.43C222.66,138.48,222.67,138.32,222.77,138.33Z" style="fill: rgb(38, 50, 56); transform-origin: 223.464px 138.366px 0px;" id="elzl6sufkkdq" class="animable"></path><path d="M205.11,149.2c2.46-.46,1.32-6.07,1.32-6.07s9.52-4.95,7.74-13.42a14.55,14.55,0,0,0,9.44,5.34s-3.25-8.88-10.93-8.33c0,0-9.88-.37-12.59,8.25S203.46,149.51,205.11,149.2Z" style="fill: rgb(38, 50, 56); transform-origin: 211.507px 137.954px 0px;" id="elugas7l7ann" class="animable"></path><path d="M214,129.09a9.53,9.53,0,0,1,.75,3.89,9.65,9.65,0,0,1-.83,3.92,9.51,9.51,0,0,1-.46.9l-.24.45-.3.41c-.2.27-.39.54-.6.8l-.69.73-.36.35-.39.32-.77.62c-.56.37-1.13.7-1.7,1,.5-.44,1-.82,1.52-1.26l.7-.67.35-.34c.11-.12.21-.25.31-.37s.41-.49.62-.74.36-.53.54-.79l.27-.4.23-.42a8.55,8.55,0,0,0,.42-.86,11.12,11.12,0,0,0,.92-3.7,10.37,10.37,0,0,0,0-1.93A10.7,10.7,0,0,0,214,129.09Z" style="fill: rgb(38, 50, 56); transform-origin: 211.581px 135.785px 0px;" id="elbkwi3ydiy0e" class="animable"></path><path d="M207,147.54s-3.88-3-5.33-1.53,2.29,6.46,4.58,6.59a2.18,2.18,0,0,0,2.45-2Z" style="fill: rgb(235, 148, 129); transform-origin: 205.023px 149.111px 0px;" id="el4rjkx3x1sso" class="animable"></path><path d="M202.78,147.4a0,0,0,0,0,0,.06,5.55,5.55,0,0,1,3.75,2.47,1.21,1.21,0,0,0-1.83.21.05.05,0,0,0,.07.07,1.34,1.34,0,0,1,1.55,0,6.53,6.53,0,0,1,1,.94c.1.1.32,0,.22-.17l0,0C207,149.11,204.8,147,202.78,147.4Z" style="fill: rgb(38, 50, 56); transform-origin: 205.173px 149.27px 0px;" id="el98dc9jg5noh" class="animable"></path><path d="M162.22,346.17s-8.43,21.05-8.45,21.07c-3.52,5.62-7.59,12.16-7.53,12.43-.16.37,29.58,45.66,31.47,46.17s5.84-7.31,5-9.82-3.58-22.48-3.58-22.48l14.9-34.86Z" style="fill: rgb(235, 148, 129); transform-origin: 170.135px 386.017px 0px;" id="elrs5hwuq9o9p" class="animable"></path><path d="M185.17,379.55l-31.4-12.31s22.06-56.46,22.06-57.63,5.89-42.29,10-71c0,0-5.9-26.55,4-36.5l34.69,9.12S216.28,290,210.76,314.5C207.73,327.89,185.17,379.55,185.17,379.55Z" style="fill: rgb(235, 148, 129); transform-origin: 189.145px 290.83px 0px;" id="elnkkcg97yka" class="animable"></path><path d="M125,291.5s-27.75,12.6-27.78,12.6c-6.62-.47-12.43-.77-15.45-.64h0a4.65,4.65,0,0,0-2.08.34s0,0,0,0c-1.47,1.87-6.79,54.65-6.36,56.55s5.89.82,7.73-1.07,12.92-21.18,12.92-21.18l35-12.46Z" style="fill: rgb(235, 148, 129); transform-origin: 101.143px 326.423px 0px;" id="elegedolnbsd9" class="animable"></path><path d="M224.54,211.31a60.15,60.15,0,0,1-.93,7.76c-1,4-7.51,11.17-12.12,14.65,0,0-16.52,53.13-23.62,65-11.05,18.43-78.44,33.6-78.44,33.6l-2.54-32.82s52.5-23.58,52.84-24.57c1.17-3.42,8.37-16.37,11.54-32,0,0-.34-7.77-.35-14.23,0-15,12.58-28.2,12.58-28.2Z" style="fill: rgb(235, 148, 129); transform-origin: 165.715px 266.41px 0px;" id="elcxb95fuli3g" class="animable"></path><path d="M223.83,218s-11.62,11.13-40.33-17.5c0,0-5.8,5.57-7.53,11.1,0,0,17.89-4.63,35.52,22.14C211.49,233.72,222.71,226.62,223.83,218Z" style="fill: rgb(255, 199, 39); transform-origin: 199.9px 217.12px 0px;" id="elypubytpmb8" class="animable"></path><path d="M218.05,214.13a2,2,0,0,0-.94,1,2.49,2.49,0,0,0-.25,1.24c0,.37.4.51.6.2a1.45,1.45,0,0,0,.06-1.29,1.35,1.35,0,0,1,.27,1.46.72.72,0,0,1-.31.37.75.75,0,0,1-.51.06.83.83,0,0,1-.6-.72,2.34,2.34,0,0,1,.38-1.54A1.65,1.65,0,0,1,218.05,214.13Z" style="fill: rgb(38, 50, 56); transform-origin: 217.204px 215.66px 0px;" id="elk47k94zxdgr" class="animable"></path><path d="M176.5,308.64a67.72,67.72,0,0,0,8.14-6.66,23.08,23.08,0,0,0,3.38-4,41.69,41.69,0,0,0,2.25-4.72c2.69-6.48,5.07-13.1,7.41-19.73s4.65-13.26,6.94-19.91l6.87-19.94-3.1,10.08-3.22,10c-2.18,6.69-4.46,13.35-6.78,20s-4.77,13.24-7.59,19.71a42,42,0,0,1-2.38,4.74,22.71,22.71,0,0,1-3.53,4A67.51,67.51,0,0,1,176.5,308.64Z" style="fill: rgb(38, 50, 56); transform-origin: 193.995px 271.16px 0px;" id="eljjarem9w25" class="animable"></path></g><g id="freepik--Net--inject-18" style="transform-origin: 375px 286.9px 0px;" class="animable"><g id="elro278ji4vo"><rect x="266.2" y="153.89" width="0.75" height="19.18" style="fill: rgb(255, 199, 39); transform-origin: 266.575px 163.48px 0px; transform: rotate(-42.35deg);" class="animable"></rect></g><g id="eld0bnpcliwxp"><rect x="475.37" y="171" width="16.11" height="0.75" style="fill: rgb(255, 199, 39); transform-origin: 483.425px 171.375px 0px; transform: rotate(-36.63deg);" class="animable"></rect></g><g id="elxra4yxixcjh"><rect x="483.05" y="253.99" width="0.75" height="15.45" style="fill: rgb(255, 199, 39); transform-origin: 483.425px 261.715px 0px; transform: rotate(-56.76deg);" class="animable"></rect></g><g id="elus0tcl11hoj"><rect x="257.86" y="280.91" width="17.42" height="0.75" style="fill: rgb(255, 199, 39); transform-origin: 266.57px 281.285px 0px; transform: rotate(-42.1deg);" class="animable"></rect></g><g id="el5uvyj9ed8ht"><rect x="374.62" y="78.56" width="0.75" height="203.96" style="fill: rgb(199, 199, 199); transform-origin: 374.995px 180.54px 0px; transform: rotate(-88.93deg);" class="animable"></rect></g><g id="elvprdx05tni"><rect x="374.62" y="85.73" width="0.75" height="203.93" style="fill: rgb(199, 199, 199); transform-origin: 374.995px 187.695px 0px; transform: rotate(-89.4271deg);" class="animable"></rect></g><rect x="273.04" y="194.48" width="203.92" height="0.75" style="fill: rgb(199, 199, 199); transform-origin: 375px 194.855px 0px;" id="el3jnwo83htwy" class="animable"></rect><g id="el466d84f7git"><rect x="273.03" y="201.64" width="203.93" height="0.75" style="fill: rgb(199, 199, 199); transform-origin: 374.995px 202.015px 0px; transform: rotate(-0.45deg);" class="animable"></rect></g><g id="elgnmp97sll7m"><rect x="273.02" y="208.8" width="203.95" height="0.75" style="fill: rgb(199, 199, 199); transform-origin: 374.995px 209.175px 0px; transform: rotate(-0.97deg);" class="animable"></rect></g><g id="elu5pcp16uu8"><rect x="273" y="215.96" width="203.99" height="0.75" style="fill: rgb(199, 199, 199); transform-origin: 374.995px 216.335px 0px; transform: rotate(-1.49deg);" class="animable"></rect></g><g id="el3xubo5qrev3"><rect x="272.98" y="223.12" width="204.05" height="0.75" style="fill: rgb(199, 199, 199); transform-origin: 375.005px 223.495px 0px; transform: rotate(-2.01deg);" class="animable"></rect></g><g id="elv4dk9bdjat"><rect x="272.94" y="230.28" width="204.12" height="0.75" style="fill: rgb(199, 199, 199); transform-origin: 375px 230.655px 0px; transform: rotate(-2.46deg);" class="animable"></rect></g><g id="elkhmgp589ri"><rect x="272.9" y="237.44" width="204.2" height="0.75" style="fill: rgb(199, 199, 199); transform-origin: 375px 237.815px 0px; transform: rotate(-2.99deg);" class="animable"></rect></g><g id="eltyq8m87wt5p"><rect x="272.85" y="244.6" width="204.31" height="0.75" style="fill: rgb(199, 199, 199); transform-origin: 375.005px 244.975px 0px; transform: rotate(-3.51deg);" class="animable"></rect></g><g id="elqcng1oj7mln"><rect x="272.79" y="251.77" width="204.43" height="0.75" style="fill: rgb(199, 199, 199); transform-origin: 375.005px 252.145px 0px; transform: rotate(-4.00417deg);" class="animable"></rect></g><g id="eltesmeh3kkdq"><rect x="272.72" y="258.93" width="204.56" height="0.75" style="fill: rgb(199, 199, 199); transform-origin: 375px 259.305px 0px; transform: rotate(-4.57392deg);" class="animable"></rect></g><rect x="271.91" y="170.57" width="0.75" height="104.96" style="fill: rgb(199, 199, 199); transform-origin: 272.285px 223.05px 0px;" id="elh29ok8gkpqk" class="animable"></rect><rect x="279.52" y="170.56" width="0.75" height="104.08" style="fill: rgb(199, 199, 199); transform-origin: 279.895px 222.6px 0px;" id="elzu97nz3jdwf" class="animable"></rect><rect x="287.13" y="170.57" width="0.75" height="103.2" style="fill: rgb(199, 199, 199); transform-origin: 287.505px 222.17px 0px;" id="el6xnnw7tgdql" class="animable"></rect><rect x="294.73" y="170.6" width="0.75" height="102.32" style="fill: rgb(199, 199, 199); transform-origin: 295.105px 221.76px 0px;" id="elicutfwjmlv" class="animable"></rect><rect x="302.34" y="170.64" width="0.75" height="101.44" style="fill: rgb(199, 199, 199); transform-origin: 302.715px 221.36px 0px;" id="elht5h4hva9zo" class="animable"></rect><rect x="309.95" y="170.7" width="0.75" height="100.56" style="fill: rgb(199, 199, 199); transform-origin: 310.325px 220.98px 0px;" id="elqo8pw0ij2dh" class="animable"></rect><rect x="317.56" y="170.78" width="0.75" height="99.68" style="fill: rgb(199, 199, 199); transform-origin: 317.935px 220.62px 0px;" id="el1qtr7dhxjdr" class="animable"></rect><rect x="325.17" y="170.87" width="0.75" height="98.8" style="fill: rgb(199, 199, 199); transform-origin: 325.545px 220.27px 0px;" id="elonr3l7g4pji" class="animable"></rect><rect x="332.78" y="170.98" width="0.75" height="97.92" style="fill: rgb(199, 199, 199); transform-origin: 333.155px 219.94px 0px;" id="elo481abtr3xb" class="animable"></rect><rect x="340.39" y="171.11" width="0.75" height="97.04" style="fill: rgb(199, 199, 199); transform-origin: 340.765px 219.63px 0px;" id="elobjgs07khhq" class="animable"></rect><rect x="347.99" y="171.25" width="0.75" height="96.16" style="fill: rgb(199, 199, 199); transform-origin: 348.365px 219.33px 0px;" id="elyvnrvd1j7r" class="animable"></rect><rect x="355.6" y="171.41" width="0.75" height="95.29" style="fill: rgb(199, 199, 199); transform-origin: 355.975px 219.055px 0px;" id="elf8bd8g8v7hw" class="animable"></rect><rect x="363.21" y="171.59" width="0.75" height="94.41" style="fill: rgb(199, 199, 199); transform-origin: 363.585px 218.795px 0px;" id="elixrbvdm4r8k" class="animable"></rect><rect x="370.82" y="171.78" width="0.75" height="93.53" style="fill: rgb(199, 199, 199); transform-origin: 371.195px 218.545px 0px;" id="eled62hca74xn" class="animable"></rect><rect x="378.43" y="171.99" width="0.75" height="92.65" style="fill: rgb(199, 199, 199); transform-origin: 378.805px 218.315px 0px;" id="elid15iv89t2e" class="animable"></rect><rect x="386.04" y="172.22" width="0.75" height="91.77" style="fill: rgb(199, 199, 199); transform-origin: 386.415px 218.105px 0px;" id="eli3z8n2r8vh" class="animable"></rect><rect x="393.65" y="172.46" width="0.75" height="90.89" style="fill: rgb(199, 199, 199); transform-origin: 394.025px 217.905px 0px;" id="elmb931c3iill" class="animable"></rect><rect x="401.25" y="172.72" width="0.75" height="90.01" style="fill: rgb(199, 199, 199); transform-origin: 401.625px 217.725px 0px;" id="el8pf73fdeme8" class="animable"></rect><rect x="408.86" y="172.99" width="0.75" height="89.13" style="fill: rgb(199, 199, 199); transform-origin: 409.235px 217.555px 0px;" id="el4ge135dnviu" class="animable"></rect><rect x="416.47" y="173.29" width="0.75" height="88.25" style="fill: rgb(199, 199, 199); transform-origin: 416.845px 217.415px 0px;" id="el3b8h9u7vgfc" class="animable"></rect><rect x="424.08" y="173.59" width="0.75" height="87.37" style="fill: rgb(199, 199, 199); transform-origin: 424.455px 217.275px 0px;" id="eltsdg3po5ezo" class="animable"></rect><rect x="431.69" y="173.92" width="0.75" height="86.49" style="fill: rgb(199, 199, 199); transform-origin: 432.065px 217.165px 0px;" id="elnxibejgd639" class="animable"></rect><rect x="439.3" y="174.26" width="0.75" height="85.61" style="fill: rgb(199, 199, 199); transform-origin: 439.675px 217.065px 0px;" id="elwouylqhpiwb" class="animable"></rect><rect x="446.91" y="174.62" width="0.75" height="84.73" style="fill: rgb(199, 199, 199); transform-origin: 447.285px 216.985px 0px;" id="elga56a3gqqp" class="animable"></rect><rect x="454.52" y="175" width="0.75" height="83.85" style="fill: rgb(199, 199, 199); transform-origin: 454.895px 216.925px 0px;" id="eldlegvgo89ys" class="animable"></rect><rect x="462.12" y="175.39" width="0.75" height="82.98" style="fill: rgb(199, 199, 199); transform-origin: 462.495px 216.88px 0px;" id="elg0hyydc6urw" class="animable"></rect><rect x="469.73" y="175.8" width="0.75" height="82.1" style="fill: rgb(199, 199, 199); transform-origin: 470.105px 216.85px 0px;" id="elkoxohg7vxkj" class="animable"></rect><rect x="477.34" y="176.22" width="0.75" height="81.22" style="fill: rgb(199, 199, 199); transform-origin: 477.715px 216.83px 0px;" id="eljhjqjtagjw" class="animable"></rect><path d="M271,277.62V168.51L479,174.23v85.09l-1.82.16Zm4-105V273.26L475,255.65V178.13Z" style="fill: rgb(255, 199, 39); transform-origin: 375px 223.065px 0px;" id="elyida0srnj2d" class="animable"></path><rect x="257.46" y="138.89" width="5.31" height="296.02" style="fill: rgb(255, 199, 39); transform-origin: 260.115px 286.9px 0px;" id="elvsfkbas2hqn" class="animable"></rect><rect x="487.23" y="141.68" width="5.31" height="267.46" style="fill: rgb(255, 199, 39); transform-origin: 489.885px 275.41px 0px;" id="elkztkoi4ijui" class="animable"></rect></g><g id="freepik--Lines--inject-18" style="transform-origin: 192.365px 94.965px 0px;" class="animable animator-hidden"><path d="M176.47,101.28A51.68,51.68,0,0,1,184.19,94a67.33,67.33,0,0,1,8.9-5.86,64.41,64.41,0,0,1,9.71-4.35c1.67-.63,3.38-1.09,5.09-1.57.85-.26,1.72-.41,2.59-.59l2.61-.52A87.72,87.72,0,0,0,203,84.33a71.46,71.46,0,0,0-9.55,4.46,75.29,75.29,0,0,0-8.91,5.66A69.07,69.07,0,0,0,176.47,101.28Z" style="fill: rgb(38, 50, 56); transform-origin: 194.78px 91.195px 0px;" id="el0v0p0vf5js8l" class="animable"></path><path d="M171.64,108.82a57.06,57.06,0,0,1,8.81-6,88.74,88.74,0,0,1,9.61-4.67c.82-.34,1.66-.63,2.49-1s1.67-.63,2.52-.9l2.53-.84c.86-.26,1.72-.49,2.57-.73,1.71-.5,3.46-.86,5.19-1.27s3.5-.64,5.25-.92c-3.45.84-6.9,1.67-10.27,2.74s-6.72,2.24-10,3.57a103.55,103.55,0,0,0-9.62,4.47A80.7,80.7,0,0,0,171.64,108.82Z" style="fill: rgb(38, 50, 56); transform-origin: 191.125px 100.655px 0px;" id="el2s799rk8v5z" class="animable"></path><path d="M181.72,106.94a29.6,29.6,0,0,1,7.12-3.43,50.87,50.87,0,0,1,7.69-1.92c1.31-.18,2.62-.38,3.94-.47s2.63-.2,3.95-.22,2.64,0,4,0,2.63.2,3.94.33l-3.95,0c-1.31.06-2.62,0-3.92.16a72.66,72.66,0,0,0-7.8.86,60.16,60.16,0,0,0-7.63,1.73c-1.25.37-2.5.77-3.71,1.26A28.18,28.18,0,0,0,181.72,106.94Z" style="fill: rgb(38, 50, 56); transform-origin: 197.04px 103.916px 0px;" id="elhao0lesyd7" class="animable"></path></g><g id="freepik--Ball--inject-18" style="transform-origin: 235.345px 89.355px 0px;" class="animable animator-active"><g id="freepik--3lmzy2--inject-18" style="transform-origin: 235.345px 89.355px 0px;" class="animable"><circle cx="235.34" cy="89.34" r="20.65" style="fill: rgb(255, 199, 39); transform-origin: 235.34px 89.34px 0px;" id="elfa6fv1f3zls" class="animable"></circle><g id="eltlgjordutl"><path d="M256,89.34a20.65,20.65,0,1,1-27.41-19.52A19.09,19.09,0,1,0,256,88.19C256,88.57,256,89,256,89.34Z" style="opacity: 0.1; transform-origin: 235.348px 89.9017px 0px;" class="animable"></path></g><g id="el5ex9lrcey6v"><path d="M255.57,85.26c-.07-.38-.15-.75-.25-1.12-.41-.07-.8-.16-1.19-.22a22.08,22.08,0,0,0-8.34.24A25.12,25.12,0,0,0,235.2,89.3c-.1.08-.17.12-.29,0A24,24,0,0,1,229.35,85l0-.08.77-.59a33.6,33.6,0,0,1,12.86-5.76,24.92,24.92,0,0,1,8.17-.37c.61.07,1.22.19,1.83.31-.24-.39-.48-.74-.74-1.1l-.07-.11-.74-.11a26.37,26.37,0,0,0-8.5.34,34.8,34.8,0,0,0-12.46,5.31c-.62.42-1.22.87-1.86,1.33-.29-.35-.58-.69-.86-1A24,24,0,0,1,225.13,79a.26.26,0,0,1,.09-.37,24,24,0,0,1,5.66-3.49,28.38,28.38,0,0,1,8.34-2.28,32.39,32.39,0,0,1,9,.3,16.25,16.25,0,0,0-1.36-1s0,0-.06,0l-.48-.31a29.65,29.65,0,0,0-21.67,6c-.17-.44-.33-.89-.49-1.36a23.51,23.51,0,0,1-.87-3.8,7.62,7.62,0,0,0-.84.66.05.05,0,0,0,0,0l0,0a23,23,0,0,0,7.08,13.2,24,24,0,0,0,5,3.71c.15.08.16.19.16.33a24.32,24.32,0,0,1-.58,4.18c-.05.24-.11.48-.17.72l0,.07a16.4,16.4,0,0,1-3.27-1,20,20,0,0,1-10.62-10.77,26.45,26.45,0,0,1-1.73-5.79c-.24.37-.46.72-.68,1.1,0,0-.06.1-.08.14h0a24.71,24.71,0,0,0,4.21,9.52,20.44,20.44,0,0,0,8.67,6.87,14.69,14.69,0,0,0,3,.92l.26.06c-.06.23-.12.43-.19.63a23.18,23.18,0,0,1-2.49,5.22.26.26,0,0,1-.37.12,24.08,24.08,0,0,1-6.86-3.87,28.42,28.42,0,0,1-8.71-11.87c0,.43-.1.87-.16,1.3a.93.93,0,0,1,0,.24v.56a28.21,28.21,0,0,0,15.38,14.62l-.42.55a21.41,21.41,0,0,1-3.7,3.67,10.48,10.48,0,0,0,1,.47,22.83,22.83,0,0,0,6.94-9.64,25.54,25.54,0,0,0,1.68-8.05.45.45,0,0,1,.14-.31,22.77,22.77,0,0,1,5.59-3.48l.13,0c.06.7.13,1.38.17,2a34.25,34.25,0,0,1-1.31,11.61,25.27,25.27,0,0,1-5.27,9.64h1.36c.3-.37.59-.74.86-1.11a27.31,27.31,0,0,0,4.57-10.32,35.69,35.69,0,0,0,.82-9.61c0-.82-.14-1.61-.22-2.41,0-.19,0-.3.21-.37a23.06,23.06,0,0,1,6.9-1.47c.23,0,.31,0,.35.28a26.06,26.06,0,0,1,.24,5.92,31.09,31.09,0,0,1-7.31,17.7,16.93,16.93,0,0,0,2.12-1c4.91-6.84,7.16-14.4,6-22.93a12,12,0,0,1,1.34.08C253.4,84.89,254.49,85.09,255.57,85.26Z" style="opacity: 0.1; transform-origin: 235.245px 90.8305px 0px;" class="animable"></path></g></g></g><defs>     <filter id="active" height="200%">         <feMorphology in="SourceAlpha" result="DILATED" operator="dilate" radius="2"></feMorphology>                <feFlood flood-color="#32DFEC" flood-opacity="1" result="PINK"></feFlood>        <feComposite in="PINK" in2="DILATED" operator="in" result="OUTLINE"></feComposite>        <feMerge>            <feMergeNode in="OUTLINE"></feMergeNode>            <feMergeNode in="SourceGraphic"></feMergeNode>        </feMerge>    </filter>    <filter id="hover" height="200%">        <feMorphology in="SourceAlpha" result="DILATED" operator="dilate" radius="2"></feMorphology>                <feFlood flood-color="#ff0000" flood-opacity="0.5" result="PINK"></feFlood>        <feComposite in="PINK" in2="DILATED" operator="in" result="OUTLINE"></feComposite>        <feMerge>            <feMergeNode in="OUTLINE"></feMergeNode>            <feMergeNode in="SourceGraphic"></feMergeNode>        </feMerge>            <feColorMatrix type="matrix" values="0   0   0   0   0                0   1   0   0   0                0   0   0   0   0                0   0   0   1   0 "></feColorMatrix>    </filter></defs></svg>